<?xml version="1.0" encoding="UTF-8" standalone="no"?>
<!-- Created with Inkscape (http://www.inkscape.org/) -->

<svg
   xmlns:dc="http://purl.org/dc/elements/1.1/"
   xmlns:cc="http://creativecommons.org/ns#"
   xmlns:rdf="http://www.w3.org/1999/02/22-rdf-syntax-ns#"
   xmlns:svg="http://www.w3.org/2000/svg"
   xmlns="http://www.w3.org/2000/svg"
   xmlns:sodipodi="http://sodipodi.sourceforge.net/DTD/sodipodi-0.dtd"
   xmlns:inkscape="http://www.inkscape.org/namespaces/inkscape"
   version="1.1"
   id="svg2"
   width="1920"
   height="1080"
   viewBox="0 0 1920 1080"
   sodipodi:docname="bg.svg"
   inkscape:version="0.92.4 (5da689c313, 2019-01-14)">
  <metadata
     id="metadata8">
    <rdf:RDF>
      <cc:Work
         rdf:about="">
        <dc:format>image/svg+xml</dc:format>
        <dc:type
           rdf:resource="http://purl.org/dc/dcmitype/StillImage" />
        <dc:title></dc:title>
      </cc:Work>
    </rdf:RDF>
  </metadata>
  <defs
     id="defs6">
    <clipPath
       id="clip0">
      <path
         style="fill:#ffffff"
         inkscape:connector-curvature="0"
         d="M 0,0 H 80 V 80 H 0 Z"
         id="path2528" />
    </clipPath>
  </defs>
  <sodipodi:namedview
     pagecolor="#ffffff"
     bordercolor="#666666"
     borderopacity="1"
     objecttolerance="10"
     gridtolerance="10"
     guidetolerance="10"
     inkscape:pageopacity="0"
     inkscape:pageshadow="2"
     inkscape:window-width="1920"
     inkscape:window-height="1080"
     id="namedview4"
     showgrid="false"
     inkscape:zoom="0.27253074"
     inkscape:cx="-306.39241"
     inkscape:cy="237.11325"
     inkscape:window-x="0"
     inkscape:window-y="0"
     inkscape:window-maximized="0"
     inkscape:current-layer="svg2" />
  <rect
     style="opacity:1;fill:#000000;fill-opacity:1;stroke:none;stroke-width:2;stroke-linecap:round;stroke-linejoin:miter;stroke-miterlimit:4;stroke-dasharray:none;stroke-dashoffset:0;stroke-opacity:1"
     id="rect3121"
     width="1926.3882"
     height="1100.7932"
     x="0"
     y="-6.1160164" />
  <g
     clip-path="url(#clip0)"
     id="g2526"
     transform="matrix(3.6108108,0,0,3.6108108,101.40541,176.64864)">
    <path
       style="fill:#fa1100"
       inkscape:connector-curvature="0"
       d="M 46.378,10.723 57.151,0 H 80 V 21.503 L 68.547,32.567 V 10.723 Z"
       id="path2514" />
    <path
       style="fill:#00ff00"
       inkscape:connector-curvature="0"
       d="M 69.228,46.411 80,57.191 V 80 H 58.512 L 47.399,68.596 H 69.228 V 46.41 Z"
       id="path2516" />
    <path
       style="fill:#ffffff"
       inkscape:connector-curvature="0"
       d="M 33.565,10.723 22.849,0 H 0 V 21.503 L 11.396,32.567 V 10.723 Z"
       id="path2518" />
    <path
       style="fill:#0000ff"
       inkscape:connector-curvature="0"
       d="M 10.716,46.411 0,57.191 V 80 H 21.488 L 32.544,68.596 H 10.716 V 46.41 Z"
       id="path2520" />
    <path
       style="stroke:#ffffff;stroke-width:0.81099999;stroke-linecap:round;stroke-miterlimit:10"
       inkscape:connector-curvature="0"
       d="M 19.277,41.362 36.797,23.489"
       stroke-miterlimit="10"
       id="path2522" />
    <path
       style="fill:#ffffff"
       inkscape:connector-curvature="0"
       d="m 34.755,32.908 h -2.04 l -0.568,1.248 h -1.814 l 3.345,-6.695 h 2.268 l 0.567,6.695 h -1.7 z m -1.417,-1.419 h 1.304 L 34.585,29.56 v -1.021 c -0.056,0.284 -0.17,0.51 -0.283,0.738 z m 3.799,2.667 1.417,-6.638 h 1.758 l -1.077,5.22 h 2.154 l -0.283,1.475 h -3.97 v -0.057 z m 4.763,0 1.36,-6.695 h 1.758 l -1.078,5.22 h 2.155 l -0.283,1.475 H 41.899 Z M 27.782,40.68 c 0,0.682 -0.227,1.192 -0.68,1.59 -0.454,0.397 -1.078,0.567 -1.815,0.567 A 4.4,4.4 0 0 1 24.38,42.723 c -0.284,-0.056 -0.567,-0.17 -0.737,-0.34 v -1.589 c 0.227,0.17 0.567,0.284 0.85,0.398 0.34,0.113 0.624,0.17 0.907,0.17 0.227,0 0.397,-0.057 0.51,-0.114 a 0.515,0.515 0 0 0 0.17,-0.397 c 0,-0.057 0,-0.17 -0.056,-0.227 -0.057,-0.057 -0.113,-0.17 -0.17,-0.227 a 5.95,5.95 0 0 0 -0.51,-0.454 c -0.34,-0.283 -0.624,-0.567 -0.737,-0.85 -0.17,-0.285 -0.227,-0.625 -0.227,-0.965 0,-0.398 0.113,-0.738 0.283,-1.078 0.17,-0.34 0.454,-0.568 0.85,-0.738 0.341,-0.17 0.738,-0.284 1.191,-0.284 0.738,0 1.361,0.17 1.928,0.511 l -0.623,1.362 c -0.51,-0.284 -0.964,-0.397 -1.305,-0.397 -0.17,0 -0.34,0.056 -0.453,0.113 -0.114,0.057 -0.17,0.227 -0.17,0.397 0,0.17 0.056,0.284 0.17,0.397 0.113,0.114 0.283,0.284 0.567,0.511 0.34,0.284 0.623,0.567 0.794,0.851 0.056,0.227 0.17,0.51 0.17,0.908 z m 3.345,-2.155 1.417,-2.497 h 1.985 l -2.779,4.142 -0.567,2.61 h -1.7 l 0.567,-2.61 -1.134,-4.085 h 1.814 z m 6.803,2.155 c 0,0.682 -0.226,1.192 -0.68,1.59 -0.453,0.397 -1.077,0.567 -1.814,0.567 a 4.4,4.4 0 0 1 -0.907,-0.114 c -0.284,-0.056 -0.567,-0.17 -0.737,-0.34 v -1.589 c 0.226,0.17 0.567,0.284 0.85,0.398 0.34,0.113 0.624,0.17 0.907,0.17 0.227,0 0.397,-0.057 0.51,-0.114 a 0.515,0.515 0 0 0 0.17,-0.397 c 0,-0.057 0,-0.17 -0.056,-0.227 -0.057,-0.057 -0.114,-0.17 -0.17,-0.227 a 5.95,5.95 0 0 0 -0.51,-0.454 c -0.34,-0.283 -0.624,-0.567 -0.738,-0.85 -0.17,-0.285 -0.226,-0.625 -0.226,-0.965 0,-0.398 0.113,-0.738 0.283,-1.078 0.17,-0.34 0.454,-0.568 0.85,-0.738 a 2.64,2.64 0 0 1 1.191,-0.284 c 0.737,0 1.361,0.17 1.928,0.511 l -0.624,1.362 c -0.51,-0.284 -0.963,-0.397 -1.304,-0.397 -0.17,0 -0.34,0.056 -0.453,0.113 -0.114,0.057 -0.17,0.227 -0.17,0.397 0,0.17 0.056,0.284 0.17,0.397 0.113,0.114 0.283,0.284 0.567,0.511 0.34,0.284 0.623,0.567 0.793,0.851 0.057,0.227 0.17,0.51 0.17,0.908 z m 3.232,2.043 h -1.757 l 1.077,-5.22 h -1.417 l 0.283,-1.475 h 4.593 L 43.657,37.56 H 42.24 Z m 6.067,0 h -3.912 l 1.36,-6.695 h 3.913 l -0.284,1.476 h -2.154 l -0.17,1.078 h 1.984 L 47.626,40 h -1.984 l -0.284,1.248 h 2.155 z m 3.515,0 v -4.765 h -0.057 c -0.226,1.248 -0.34,2.042 -0.396,2.326 l -0.51,2.44 h -1.588 l 1.36,-6.696 h 2.325 v 4.766 h 0.057 l 2.154,-4.766 h 2.382 l -1.418,6.695 h -1.587 l 0.51,-2.496 c 0.17,-0.68 0.283,-1.362 0.51,-1.986 l 0.057,-0.283 h -0.057 l -2.154,4.765 z m 9.922,-2.043 c 0,0.682 -0.226,1.192 -0.68,1.59 -0.454,0.397 -1.077,0.567 -1.814,0.567 a 4.4,4.4 0 0 1 -0.908,-0.114 c -0.283,-0.056 -0.567,-0.17 -0.737,-0.34 v -1.589 c 0.227,0.17 0.567,0.284 0.85,0.398 0.341,0.113 0.624,0.17 0.908,0.17 0.227,0 0.397,-0.057 0.51,-0.114 a 0.515,0.515 0 0 0 0.17,-0.397 c 0,-0.057 0,-0.17 -0.056,-0.227 -0.057,-0.057 -0.114,-0.17 -0.17,-0.227 a 5.942,5.942 0 0 0 -0.51,-0.454 c -0.34,-0.283 -0.624,-0.567 -0.738,-0.85 -0.17,-0.285 -0.227,-0.625 -0.227,-0.965 0,-0.398 0.114,-0.738 0.284,-1.078 0.17,-0.34 0.453,-0.568 0.85,-0.738 0.34,-0.17 0.737,-0.284 1.191,-0.284 0.737,0 1.36,0.17 1.928,0.511 l -0.624,1.362 c -0.51,-0.284 -0.964,-0.397 -1.304,-0.397 -0.17,0 -0.34,0.056 -0.454,0.113 -0.113,0.057 -0.17,0.227 -0.17,0.397 0,0.17 0.057,0.284 0.17,0.397 0.114,0.114 0.284,0.284 0.567,0.511 0.34,0.284 0.624,0.567 0.794,0.851 0.057,0.227 0.17,0.51 0.17,0.908 z m -18.653,6.64 h 2.721 l -0.737,3.63 c -0.737,0.227 -1.53,0.397 -2.324,0.397 -0.794,0 -1.361,-0.226 -1.815,-0.68 -0.453,-0.454 -0.623,-1.135 -0.623,-1.986 0,-0.794 0.17,-1.532 0.51,-2.213 0.34,-0.68 0.794,-1.135 1.36,-1.475 0.568,-0.34 1.248,-0.51 1.985,-0.51 0.794,0 1.474,0.17 1.984,0.51 l -0.68,1.418 a 2.507,2.507 0 0 0 -1.36,-0.397 c -0.398,0 -0.738,0.114 -1.021,0.34 a 2.572,2.572 0 0 0 -0.737,0.965 c -0.17,0.454 -0.284,0.908 -0.284,1.362 0,0.794 0.34,1.191 0.964,1.191 0.17,0 0.397,0 0.624,-0.056 l 0.227,-1.078 h -1.021 l 0.227,-1.419 z m 6.917,-2.838 c 0.794,0 1.36,0.227 1.814,0.681 0.454,0.454 0.624,1.078 0.624,1.873 0,0.794 -0.17,1.531 -0.454,2.212 a 3.395,3.395 0 0 1 -1.247,1.532 c -0.51,0.34 -1.134,0.51 -1.814,0.51 -0.794,0 -1.418,-0.226 -1.871,-0.68 -0.397,-0.397 -0.624,-1.021 -0.624,-1.816 a 5.7,5.7 0 0 1 0.454,-2.212 3.396,3.396 0 0 1 1.247,-1.532 c 0.567,-0.397 1.19,-0.568 1.87,-0.568 z m 0.68,2.553 c 0,-0.34 -0.056,-0.624 -0.227,-0.794 -0.113,-0.17 -0.34,-0.284 -0.623,-0.284 a 0.99,0.99 0 0 0 -0.794,0.398 c -0.227,0.283 -0.454,0.624 -0.567,1.078 -0.17,0.453 -0.227,0.907 -0.227,1.361 0,0.738 0.284,1.078 0.907,1.078 a 0.99,0.99 0 0 0 0.794,-0.397 c 0.227,-0.227 0.454,-0.567 0.567,-1.021 0.114,-0.397 0.17,-0.908 0.17,-1.419 z m 1.871,3.632 c 0,-0.34 0.114,-0.568 0.284,-0.795 0.17,-0.17 0.453,-0.283 0.794,-0.283 0.283,0 0.453,0.056 0.623,0.17 a 0.719,0.719 0 0 1 0.227,0.51 c 0,0.34 -0.113,0.568 -0.283,0.795 -0.17,0.17 -0.454,0.283 -0.794,0.283 -0.284,0 -0.454,-0.056 -0.624,-0.17 a 0.72,0.72 0 0 1 -0.227,-0.51 z m 1.985,-1.76 h -1.474 l 0.68,-4.311 H 54.6 l -1.134,4.312 z"
       id="path2524" />
  </g>
</svg>
