<?xml version="1.0" encoding="UTF-8" standalone="no"?>
<!-- Created with Inkscape (http://www.inkscape.org/) -->

<svg
   xmlns:dc="http://purl.org/dc/elements/1.1/"
   xmlns:cc="http://creativecommons.org/ns#"
   xmlns:rdf="http://www.w3.org/1999/02/22-rdf-syntax-ns#"
   xmlns:svg="http://www.w3.org/2000/svg"
   xmlns="http://www.w3.org/2000/svg"
   xmlns:sodipodi="http://sodipodi.sourceforge.net/DTD/sodipodi-0.dtd"
   xmlns:inkscape="http://www.inkscape.org/namespaces/inkscape"
   width="1920"
   height="1080"
   viewBox="0 0 507.99999 285.75001"
   version="1.1"
   id="svg964"
   inkscape:version="0.92.4 5da689c313, 2019-01-14"
   sodipodi:docname="bg.svg"
   inkscape:export-filename="/home/danimo/dev/voc/cm/ansible/artwork/froscon2018/bg.png"
   inkscape:export-xdpi="90"
   inkscape:export-ydpi="90">
  <defs
     id="defs958" />
  <sodipodi:namedview
     id="base"
     pagecolor="#ffffff"
     bordercolor="#666666"
     borderopacity="1.0"
     inkscape:pageopacity="0.0"
     inkscape:pageshadow="2"
     inkscape:zoom="3.959798"
     inkscape:cx="1657.6049"
     inkscape:cy="914.81338"
     inkscape:document-units="mm"
     inkscape:current-layer="layer1"
     showgrid="false"
     units="px"
     inkscape:window-width="2874"
     inkscape:window-height="1555"
     inkscape:window-x="0"
     inkscape:window-y="28"
     inkscape:window-maximized="0"
     showguides="true">
    <inkscape:grid
       type="xygrid"
       id="grid2951" />
  </sodipodi:namedview>
  <metadata
     id="metadata961">
    <rdf:RDF>
      <cc:Work
         rdf:about="">
        <dc:format>image/svg+xml</dc:format>
        <dc:type
           rdf:resource="http://purl.org/dc/dcmitype/StillImage" />
        <dc:title />
      </cc:Work>
    </rdf:RDF>
  </metadata>
  <g
     inkscape:label="Layer 1"
     inkscape:groupmode="layer"
     id="layer1"
     transform="translate(0,-11.24998)">
    <rect
       style="opacity:1;fill:#00aeef;fill-opacity:1;stroke:#ffffff;stroke-width:1.15056276;stroke-linecap:round;stroke-linejoin:miter;stroke-miterlimit:4;stroke-dasharray:none;stroke-dashoffset:0;stroke-opacity:1"
       id="rect1528"
       width="511.34387"
       height="292.48819"
       x="-1.0736398"
       y="10.889779"
       inkscape:label="path4" />
    <g
       id="g2930"
       transform="matrix(0.65706719,0,0,0.65706719,170.57594,7.8710945)">
      <path
         style="fill:#ffffff;stroke-width:0.27607614"
         id="path8"
         d="m 331.0894,26.878407 a 1.1043045,1.1043045 0 0 1 1.12364,-1.12362 h 12.73263 a 1.12363,1.12363 0 1 1 0,2.24449 h -11.61176 v 9.29825 h 7.95927 a 1.1208691,1.1208691 0 1 1 0,2.24173 h -7.95927 v 8.32094 a 1.1043045,1.1043045 0 0 1 -1.12087,1.12087 1.1043045,1.1043045 0 0 1 -1.12087,-1.12087 z"
         class="cls-1"
         inkscape:connector-curvature="0" />
      <path
         style="fill:#ffffff;stroke-width:0.27607614"
         id="path10"
         d="m 344.65579,40.119027 a 8.4424086,8.4424086 0 0 1 0.67085,-3.34604 8.7875036,8.7875036 0 0 1 4.5746,-4.64913 8.5583604,8.5583604 0 0 1 3.32947,-0.72332 1.2809933,1.2809933 0 0 1 0.9221,0.32577 1.0877399,1.0877399 0 0 1 0,1.59019 1.2809933,1.2809933 0 0 1 -0.9221,0.31749 6.3497513,6.3497513 0 0 0 -2.45983,0.55217 6.8163202,6.8163202 0 0 0 -2.0264,1.38037 6.2034312,6.2034312 0 0 0 -1.35555,2.04296 6.3939235,6.3939235 0 0 0 -0.48865,2.48469 v 7.73014 a 1.12363,1.12363 0 1 1 -2.24449,0 z"
         class="cls-1"
         inkscape:connector-curvature="0" />
      <path
         style="fill:#ffffff;stroke-width:0.27607614"
         id="path12"
         d="m 355.3289,37.405197 a 11.228017,11.228017 0 0 1 0.90276,-4.48624 11.871274,11.871274 0 0 1 2.4626,-3.6718 11.454399,11.454399 0 0 1 3.65249,-2.48469 11.595198,11.595198 0 0 1 8.97247,0 11.63661,11.63661 0 0 1 6.15098,6.15096 11.595198,11.595198 0 0 1 0,8.97249 11.49581,11.49581 0 0 1 -2.48468,3.65524 11.871274,11.871274 0 0 1 -3.67183,2.45984 11.595198,11.595198 0 0 1 -8.97246,0 11.506854,11.506854 0 0 1 -6.10957,-6.10957 11.228017,11.228017 0 0 1 -0.90276,-4.48623 z m 2.24172,0 a 9.2872012,9.2872012 0 0 0 12.88173,8.53904 9.4611293,9.4611293 0 0 0 2.96506,-1.97395 9.3313739,9.3313739 0 0 0 1.99049,-10.18169 9.2457897,9.2457897 0 0 0 -4.96936,-4.96938 9.4114355,9.4114355 0 0 0 -7.23596,0 9.0691015,9.0691015 0 0 0 -2.9485,1.99052 9.4418047,9.4418047 0 0 0 -1.97394,2.96782 9.1657281,9.1657281 0 0 0 -0.70952,3.62764 z"
         class="cls-1"
         inkscape:connector-curvature="0" />
      <path
         style="fill:#ffffff;stroke-width:0.27607614"
         id="path14"
         d="m 393.56821,31.290116 a 2.3190396,2.3190396 0 0 0 -0.46934,-1.24787 4.2156827,4.2156827 0 0 0 -1.17607,-1.065659 6.3828806,6.3828806 0 0 0 -1.71996,-0.74264 7.697003,7.697003 0 0 0 -2.05953,-0.276071 8.0752273,8.0752273 0 0 0 -2.1175,0.276071 6.0930007,6.0930007 0 0 0 -1.71997,0.74264 3.9727357,3.9727357 0 0 0 -1.15675,1.12087 2.4294701,2.4294701 0 0 0 -0.43344,1.380379 1.9132077,1.9132077 0 0 0 0.55215,1.319651 4.9693706,4.9693706 0 0 0 1.3583,1.03252 9.8503965,9.8503965 0 0 0 1.75307,0.72332 10.728319,10.728319 0 0 0 1.77519,0.39755 11.628328,11.628328 0 0 1 3.12792,0.77854 9.6212533,9.6212533 0 0 1 2.55096,1.4991 6.7224542,6.7224542 0 0 1 1.70063,2.11749 5.7313409,5.7313409 0 0 1 0.61564,2.62273 6.0957613,6.0957613 0 0 1 -0.63497,2.73314 6.8273631,6.8273631 0 0 1 -1.7531,2.22244 8.9973216,8.9973216 0 0 1 -5.79759,2.06227 9.1878139,9.1878139 0 0 1 -3.18316,-0.55215 8.3761503,8.3761503 0 0 1 -2.60615,-1.50186 6.9985303,6.9985303 0 0 1 -1.75308,-2.22517 5.9798093,5.9798093 0 0 1 -0.63499,-2.71383 0.99939565,0.99939565 0 0 1 0.30922,-0.73989 1.0490894,1.0490894 0 0 1 1.78897,0.73989 3.9782573,3.9782573 0 0 0 0.47209,1.8994 4.8478972,4.8478972 0 0 0 1.28375,1.53775 6.3828806,6.3828806 0 0 0 1.91874,1.03252 7.2718456,7.2718456 0 0 0 2.36873,0.37824 7.454056,7.454056 0 0 0 2.38805,-0.37824 6.8549708,6.8549708 0 0 0 1.97119,-1.03252 4.6932945,4.6932945 0 0 0 1.31965,-1.53775 3.4233443,3.4233443 0 0 0 0.39755,-1.8994 3.8153724,3.8153724 0 0 0 -0.57701,-1.75308 5.6650826,5.6650826 0 0 0 -1.30308,-1.44664 7.2469989,7.2469989 0 0 0 -1.82762,-1.04909 9.9718707,9.9718707 0 0 0 -2.15064,-0.59908 11.697347,11.697347 0 0 1 -2.92641,-0.57148 9.4362828,9.4362828 0 0 1 -2.44326,-1.21197 6.1896273,6.1896273 0 0 1 -1.67027,-1.72825 4.003104,4.003104 0 0 1 -0.63496,-2.2086 4.339917,4.339917 0 0 1 0.60734,-2.20861 5.9549625,5.9549625 0 0 1 1.65647,-1.8083 8.4092796,8.4092796 0 0 1 2.42119,-1.22855 10.071257,10.071257 0 0 1 5.97153,0 8.4092796,8.4092796 0 0 1 2.44052,1.231309 5.9908525,5.9908525 0 0 1 1.65646,1.808301 4.339917,4.339917 0 0 1 0.58804,2.20585 1.1043045,1.1043045 0 0 1 -1.12363,1.12087 0.99387414,0.99387414 0 0 1 -0.77578,-0.34234 1.4770074,1.4770074 0 0 1 -0.34509,-0.913801 z"
         class="cls-1"
         inkscape:connector-curvature="0" />
      <path
         style="fill:#ffffff;stroke-width:0.27607614"
         id="path16"
         d="m 399.82686,37.369307 a 9.110513,9.110513 0 0 0 0.72332,3.6166 9.4832159,9.4832159 0 0 0 1.97117,2.96781 9.3506994,9.3506994 0 0 0 2.9485,2.00708 8.9669533,8.9669533 0 0 0 3.61936,0.74265 9.2154216,9.2154216 0 0 0 3.77948,-0.77855 9.0111255,9.0111255 0 0 0 3.02028,-2.1534 1.4162707,1.4162707 0 0 1 0.74264,-0.43342 0.97178802,0.97178802 0 0 1 0.82822,0.14632 1.0794577,1.0794577 0 0 1 0.39756,0.8862 1.3224048,1.3224048 0 0 1 -0.32577,0.9221 11.156237,11.156237 0 0 1 -3.77672,2.69726 11.388141,11.388141 0 0 1 -4.66569,0.95798 11.219735,11.219735 0 0 1 -4.48624,-0.90277 11.49581,11.49581 0 0 1 -3.65524,-2.48469 11.838145,11.838145 0 0 1 -2.45985,-3.69113 11.689064,11.689064 0 0 1 0,-9.00837 11.824342,11.824342 0 0 1 2.46812,-3.685611 11.678021,11.678021 0 0 1 3.65524,-2.484689 11.377097,11.377097 0 0 1 9.02494,0.0166 11.843666,11.843666 0 0 1 3.71047,2.57027 1.8441887,1.8441887 0 0 1 0.43344,0.72331 0.93037663,0.93037663 0 0 1 -0.10767,0.82823 1.0435678,1.0435678 0 0 1 -0.85032,0.46933 1.1816059,1.1816059 0 0 1 -0.95799,-0.36994 16.012416,16.012416 0 0 0 -3.03683,-2.02638 7.9730793,7.9730793 0 0 0 -3.72702,-0.902791 9.0111255,9.0111255 0 0 0 -3.61936,0.739891 9.2678766,9.2678766 0 0 0 -2.94851,2.02639 9.7537699,9.7537699 0 0 0 -1.97118,2.98439 9.1408814,9.1408814 0 0 0 -0.73435,3.61936 z"
         class="cls-1"
         inkscape:connector-curvature="0" />
      <path
         style="fill:#ffffff;stroke-width:0.27607614"
         id="path18"
         d="m 428.2268,31.472327 a 8.0062083,8.0062083 0 0 1 3.31291,0.70398 9.2292255,9.2292255 0 0 1 2.76076,1.89941 9.110513,9.110513 0 0 1 1.89941,2.78561 8.5114278,8.5114278 0 0 1 0.0193,6.7473 9.0884269,9.0884269 0 0 1 -1.86352,2.76076 8.6770734,8.6770734 0 0 1 -2.75525,1.89665 8.588729,8.588729 0 0 1 -3.43715,0.68742 8.7378101,8.7378101 0 0 1 -6.15096,-2.45983 8.3844326,8.3844326 0 0 1 -1.88009,-2.76077 8.7405707,8.7405707 0 0 1 1.80554,-9.60193 8.9779962,8.9779962 0 0 1 2.79666,-1.87732 9.5246275,9.5246275 0 0 1 3.49236,-0.78128 z m -6.54853,8.78749 a 6.2972969,6.2972969 0 0 0 0.50523,2.51506 6.5402439,6.5402439 0 0 0 3.45647,3.45371 6.2531247,6.2531247 0 0 0 2.51504,0.50798 6.3801196,6.3801196 0 0 0 2.53163,-0.50798 6.4712247,6.4712247 0 0 0 3.47304,-3.45371 6.2972969,6.2972969 0 0 0 0.50522,-2.51506 6.4270528,6.4270528 0 0 0 -0.50522,-2.53161 6.4215312,6.4215312 0 0 0 -3.47304,-3.47304 6.4298134,6.4298134 0 0 0 -2.53163,-0.50798 6.3000578,6.3000578 0 0 0 -2.51504,0.50798 6.4905504,6.4905504 0 0 0 -3.45647,3.47304 6.4270528,6.4270528 0 0 0 -0.50523,2.53161 z"
         class="cls-1"
         inkscape:connector-curvature="0" />
      <path
         style="fill:#ffffff;stroke-width:0.27607614"
         id="path20"
         d="m 438.53548,40.119027 a 8.4921021,8.4921021 0 0 1 0.68743,-3.40126 8.7074415,8.7074415 0 0 1 4.63256,-4.62979 8.7516139,8.7516139 0 0 1 6.79976,0 8.7074415,8.7074415 0 0 1 4.63256,4.62979 8.4921021,8.4921021 0 0 1 0.68742,3.40126 v 7.73013 a 1.12363,1.12363 0 1 1 -2.24449,0 v -7.73013 a 6.30834,6.30834 0 0 0 -0.50522,-2.51506 6.5402439,6.5402439 0 0 0 -3.45648,-3.4537 6.4739859,6.4739859 0 0 0 -5.02735,0 6.5402439,6.5402439 0 0 0 -3.45647,3.4537 6.30834,6.30834 0 0 0 -0.50523,2.51506 v 7.73013 a 1.12363,1.12363 0 1 1 -2.24449,0 z"
         class="cls-1"
         inkscape:connector-curvature="0" />
      <path
         style="fill:#ffffff;stroke-width:0.27607614"
         id="path22"
         d="m 465.41978,30.544697 a 1.562591,1.562591 0 0 1 0.55215,-2.09818 l 5.59607,-3.54757 q 0.94694,-0.65155 1.82209,-0.25123 a 1.4217921,1.4217921 0 0 1 0.87517,1.39971 v 21.39038 a 1.54879,1.54879 0 1 1 -3.09758,0 v -18.54129 l -3.58898,2.208619 a 1.3969453,1.3969453 0 0 1 -1.17609,0.173931 1.6260885,1.6260885 0 0 1 -0.98283,-0.73437 z"
         class="cls-1"
         inkscape:connector-curvature="0" />
      <path
         style="fill:#ffffff;stroke-width:0.27607614"
         id="path26"
         d="m 331.63051,51.540296 h 2.5399 v 0.45828 h -2.00983 v 1.90492 h 1.93253 v 0.458301 h -1.93253 v 2.51505 h -0.53007 z"
         class="cls-1"
         inkscape:connector-curvature="0" />
      <path
         style="fill:#ffffff;stroke-width:0.27607614"
         id="path28"
         d="m 335.04282,53.851048 v -0.276072 c 0,-0.0773 0,-0.149079 0,-0.215349 0,-0.0663 0,-0.12699 0,-0.18772 0,-0.0608 0,-0.12148 -0.0138,-0.193259 h 0.48037 v 0.74817 h 0.0166 a 2.3770156,2.3770156 0 0 1 0.16012,-0.31197 1.2340604,1.2340604 0 0 1 0.21812,-0.276072 1.0684147,1.0684147 0 0 1 0.27606,-0.18773 0.87240062,0.87240062 0 0 1 0.34233,-0.069 1.0573716,1.0573716 0 0 1 0.17946,0.01659 c 0.0635,0 0.11595,0.01931 0.15736,0.0304 v 0.50523 a 1.2451033,1.2451033 0 0 0 -0.35338,-0.047 0.75644864,0.75644864 0 0 0 -0.47761,0.146312 1.0270033,1.0270033 0 0 0 -0.2954,0.369948 1.9987913,1.9987913 0 0 0 -0.15184,0.505222 3.3819327,3.3819327 0 0 0 -0.047,0.552159 v 1.932519 h -0.49141 z"
         class="cls-1"
         inkscape:connector-curvature="0" />
      <path
         style="fill:#ffffff;stroke-width:0.27607614"
         id="path30"
         d="m 340.06741,56.755376 a 2.5785512,2.5785512 0 0 1 -0.55216,0.160121 3.3543251,3.3543251 0 0 1 -0.57424,0.0552 1.9987913,1.9987913 0 0 1 -0.82822,-0.154591 1.3803808,1.3803808 0 0 1 -0.55216,-0.427918 1.7641266,1.7641266 0 0 1 -0.30644,-0.648772 3.3129138,3.3129138 0 0 1 -0.0967,-0.81167 2.7193499,2.7193499 0 0 1 0.11872,-0.828228 1.9877482,1.9877482 0 0 1 0.33405,-0.64603 1.5349833,1.5349833 0 0 1 0.51903,-0.419611 1.6040024,1.6040024 0 0 1 1.38037,0 1.3997061,1.3997061 0 0 1 0.48312,0.422389 1.7889735,1.7889735 0 0 1 0.2761,0.615651 3.0699668,3.0699668 0 0 1 0.0884,0.739881 v 0.2457 h -2.66966 a 1.9104469,1.9104469 0 0 0 0.0856,0.58529 1.4273136,1.4273136 0 0 0 0.24296,0.469328 1.1705628,1.1705628 0 0 0 0.40307,0.317482 1.2257781,1.2257781 0 0 0 0.55215,0.118708 1.5929593,1.5929593 0 0 0 0.27608,-0.0276 c 0.10215,-0.01659 0.20429,-0.0387 0.30368,-0.0634 a 2.1423509,2.1423509 0 0 0 0.27607,-0.0911 1.4604428,1.4604428 0 0 0 0.21811,-0.107669 z m -0.23743,-2.10371 a 2.4846853,2.4846853 0 0 0 -0.0525,-0.496929 1.3803808,1.3803808 0 0 0 -0.17393,-0.436211 0.8806829,0.8806829 0 0 0 -0.3092,-0.303678 0.86963986,0.86963986 0 0 0 -0.45828,-0.115941 0.93865893,0.93865893 0 0 0 -0.47762,0.12146 1.2312996,1.2312996 0 0 0 -0.3589,0.31473 1.4052276,1.4052276 0 0 0 -0.2319,0.4362 1.5653518,1.5653518 0 0 0 -0.0801,0.480369 z"
         class="cls-1"
         inkscape:connector-curvature="0" />
      <path
         style="fill:#ffffff;stroke-width:0.27607614"
         id="path32"
         d="m 343.89106,56.755376 a 2.5785512,2.5785512 0 0 1 -0.55216,0.160121 3.3543251,3.3543251 0 0 1 -0.57424,0.0552 1.9987913,1.9987913 0 0 1 -0.82822,-0.154591 1.3803808,1.3803808 0 0 1 -0.55216,-0.427918 1.7641266,1.7641266 0 0 1 -0.30644,-0.648772 3.3129138,3.3129138 0 0 1 -0.0967,-0.81167 2.7193499,2.7193499 0 0 1 0.11871,-0.828228 1.9877482,1.9877482 0 0 1 0.33405,-0.64603 1.5349833,1.5349833 0 0 1 0.51903,-0.419611 1.6040024,1.6040024 0 0 1 1.38037,0 1.3997061,1.3997061 0 0 1 0.47486,0.43067 1.7889735,1.7889735 0 0 1 0.27607,0.615641 3.0699668,3.0699668 0 0 1 0.0884,0.739888 v 0.245711 h -2.66137 a 1.9104469,1.9104469 0 0 0 0.0856,0.585279 1.4273136,1.4273136 0 0 0 0.24295,0.469332 1.1705628,1.1705628 0 0 0 0.40307,0.317489 1.2257781,1.2257781 0 0 0 0.55215,0.118711 1.5929593,1.5929593 0 0 0 0.27608,-0.0276 c 0.10215,-0.01659 0.2043,-0.0387 0.30368,-0.0635 a 2.1423509,2.1423509 0 0 0 0.27607,-0.0911 1.4604428,1.4604428 0 0 0 0.2181,-0.10767 z m -0.23742,-2.10371 a 2.4846853,2.4846853 0 0 0 -0.0525,-0.496929 1.3803808,1.3803808 0 0 0 -0.17393,-0.436211 0.8806829,0.8806829 0 0 0 -0.3092,-0.303678 0.86963986,0.86963986 0 0 0 -0.45829,-0.115941 0.93865893,0.93865893 0 0 0 -0.47761,0.12146 1.2671896,1.2671896 0 0 0 -0.3589,0.31473 1.4052276,1.4052276 0 0 0 -0.23191,0.4362 1.5653518,1.5653518 0 0 0 -0.0801,0.480369 z"
         class="cls-1"
         inkscape:connector-curvature="0" />
      <path
         style="fill:#ffffff;stroke-width:0.27607614"
         id="path34"
         d="m 349.46504,56.250147 v 0 a 1.1926489,1.1926489 0 0 1 -0.2181,0.31197 1.3500123,1.3500123 0 0 1 -0.30369,0.22362 1.4714859,1.4714859 0 0 1 -0.35062,0.138049 1.5405049,1.5405049 0 0 1 -0.36717,0.047 1.5128973,1.5128973 0 0 1 -0.66536,-0.12423 1.1043045,1.1043045 0 0 1 -0.40306,-0.298161 0.91381204,0.91381204 0 0 1 -0.18497,-0.364419 1.4411176,1.4411176 0 0 1 -0.0469,-0.320249 1.1512375,1.1512375 0 0 1 0.23467,-0.764731 1.3803808,1.3803808 0 0 1 0.58803,-0.40859 2.6724171,2.6724171 0 0 1 0.77578,-0.16564 c 0.27607,-0.01931 0.55214,-0.0304 0.80339,-0.0304 h 0.0939 v -0.198768 a 1.1926489,1.1926489 0 0 0 -0.20154,-0.753692 0.82822844,0.82822844 0 0 0 -0.68742,-0.248478 2.4543169,2.4543169 0 0 0 -0.59081,0.0718 1.8441887,1.8441887 0 0 0 -0.55216,0.24846 v -0.461042 c 0.0746,-0.0332 0.16013,-0.0691 0.25676,-0.102148 a 2.3494081,2.3494081 0 0 1 0.30368,-0.0911 3.0368378,3.0368378 0 0 1 0.3092,-0.058 1.7696481,1.7696481 0 0 1 0.27608,-0.02479 1.3803808,1.3803808 0 0 1 1.04909,0.345099 1.6012416,1.6012416 0 0 1 0.32025,1.104299 v 1.71995 c 0,0.157361 0,0.30094 0,0.427922 a 2.7221109,2.7221109 0 0 0 0.0359,0.389268 h -0.47485 z m -0.0442,-1.336199 h -0.13805 c -0.20982,0 -0.4224,0 -0.64049,0.02479 a 2.3576904,2.3576904 0 0 0 -0.58804,0.124241 1.0297641,1.0297641 0 0 0 -0.43069,0.276079 0.72884104,0.72884104 0 0 0 -0.1684,0.507979 0.60736753,0.60736753 0 0 0 0.23466,0.552151 1.0021564,1.0021564 0 0 0 0.57424,0.160121 1.1512375,1.1512375 0 0 0 0.65706,-0.160121 0.95522341,0.95522341 0 0 0 0.34509,-0.386511 1.3251654,1.3251654 0 0 0 0.12977,-0.463809 3.9037167,3.9037167 0 0 0 0.0249,-0.39754 z"
         class="cls-1"
         inkscape:connector-curvature="0" />
      <path
         style="fill:#ffffff;stroke-width:0.27607614"
         id="path36"
         d="m 351.04972,53.895236 c 0,-0.146328 0,-0.29817 0,-0.450009 0,-0.151849 0,-0.30921 -0.0276,-0.466579 h 0.46104 v 0.695719 h 0.0166 a 2.5288574,2.5288574 0 0 1 0.15184,-0.276079 1.0849793,1.0849793 0 0 1 0.23743,-0.253992 1.145716,1.145716 0 0 1 0.35614,-0.187738 1.5570695,1.5570695 0 0 1 0.51626,-0.0746 1.4632036,1.4632036 0 0 1 0.61288,0.11594 1.1208691,1.1208691 0 0 1 0.41136,0.31473 1.2644288,1.2644288 0 0 1 0.23742,0.47485 2.4184271,2.4184271 0 0 1 0.0718,0.596332 v 2.484688 H 353.609 V 54.49975 a 1.5929593,1.5929593 0 0 0 -0.21258,-0.880682 0.78957779,0.78957779 0 0 0 -0.71228,-0.328519 1.0794577,1.0794577 0 0 0 -0.55214,0.129749 1.0435678,1.0435678 0 0 0 -0.35615,0.336812 1.4383567,1.4383567 0 0 0 -0.1905,0.45829 2.2086092,2.2086092 0 0 0 -0.058,0.496929 v 2.156169 h -0.47762 z"
         class="cls-1"
         inkscape:connector-curvature="0" />
      <path
         style="fill:#ffffff;stroke-width:0.27607614"
         id="path38"
         d="m 358.39059,56.876847 h -0.48315 v -0.6046 0 a 1.2975579,1.2975579 0 0 1 -0.49692,0.552149 1.4632036,1.4632036 0 0 1 -0.72058,0.16841 1.4880505,1.4880505 0 0 1 -0.70398,-0.157369 1.446639,1.446639 0 0 1 -0.4997,-0.433441 1.8856001,1.8856001 0 0 1 -0.30093,-0.646009 3.1003351,3.1003351 0 0 1 -0.0994,-0.806151 3.6055543,3.6055543 0 0 1 0.0856,-0.828228 1.816581,1.816581 0 0 1 0.27608,-0.646022 1.3334477,1.3334477 0 0 1 0.50797,-0.4362 1.6288493,1.6288493 0 0 1 0.73437,-0.154599 1.2947971,1.2947971 0 0 1 0.50245,0.0939 1.5487872,1.5487872 0 0 1 0.36719,0.212568 1.4079884,1.4079884 0 0 1 0.23742,0.248471 0.95798418,0.95798418 0 0 1 0.11046,0.196011 v 0 -2.48467 h 0.48311 z m -2.74146,-1.380379 a 1.6178062,1.6178062 0 0 0 0.18222,0.524539 1.1484768,1.1484768 0 0 0 0.35614,0.380989 0.99663491,0.99663491 0 0 0 0.55216,0.14909 0.93313739,0.93313739 0 0 0 0.55215,-0.151839 1.1595198,1.1595198 0 0 0 0.35337,-0.394811 1.8552317,1.8552317 0 0 0 0.19603,-0.527299 2.5647474,2.5647474 0 0 0 0,-1.104299 1.8552317,1.8552317 0 0 0 -0.19603,-0.527301 1.1595198,1.1595198 0 0 0 -0.35337,-0.39479 0.95522341,0.95522341 0 0 0 -0.55215,-0.15184 0.99663491,0.99663491 0 0 0 -0.55216,0.149069 1.1291514,1.1291514 0 0 0 -0.35614,0.383752 1.5819164,1.5819164 0 0 0 -0.18222,0.521779 3.3432821,3.3432821 0 0 0 0,1.14848 z"
         class="cls-1"
         inkscape:connector-curvature="0" />
      <path
         style="fill:#ffffff;stroke-width:0.27607614"
         id="path40"
         d="m 361.62068,53.169148 a 2.6006373,2.6006373 0 0 1 0.43344,-0.880682 2.1147432,2.1147432 0 0 1 0.73434,-0.610139 2.5095321,2.5095321 0 0 1 2.09542,0 2.1285472,2.1285472 0 0 1 0.73161,0.610139 2.6006373,2.6006373 0 0 1 0.43345,0.880682 3.5889898,3.5889898 0 0 1 0.13251,1.040799 4.0886877,4.0886877 0 0 1 -0.1546,1.12087 2.4681208,2.4681208 0 0 1 -0.44449,0.869641 2.012595,2.012595 0 0 1 -0.73436,0.552148 2.6144411,2.6144411 0 0 1 -2.0264,0 2.012595,2.012595 0 0 1 -0.73436,-0.552148 2.4681208,2.4681208 0 0 1 -0.44447,-0.869641 4.0886877,4.0886877 0 0 1 -0.15461,-1.12087 3.5889898,3.5889898 0 0 1 0.13252,-1.040799 z m 1.39969,-1.062892 a 1.7503227,1.7503227 0 0 0 -0.55214,0.52729 2.2969535,2.2969535 0 0 0 -0.33129,0.742662 3.2935884,3.2935884 0 0 0 0,1.670259 2.2941928,2.2941928 0 0 0 0.33129,0.737119 1.758605,1.758605 0 0 0 0.55214,0.530071 1.7834518,1.7834518 0 0 0 1.62609,0 1.7420405,1.7420405 0 0 0 0.56873,-0.530071 2.360451,2.360451 0 0 0 0.33406,-0.737119 3.3764114,3.3764114 0 0 0 0,-1.670259 2.360451,2.360451 0 0 0 -0.33406,-0.742662 1.7337582,1.7337582 0 0 0 -0.56873,-0.52729 1.7613658,1.7613658 0 0 0 -1.62609,0 z"
         class="cls-1"
         inkscape:connector-curvature="0" />
      <path
         style="fill:#ffffff;stroke-width:0.27607614"
         id="path42"
         d="m 367.15322,52.978648 h 0.48315 l -0.0304,0.70952 h 0.0138 l 0.12976,-0.212582 a 1.2589073,1.2589073 0 0 1 0.22914,-0.276069 1.3251654,1.3251654 0 0 1 0.36165,-0.226391 1.2865148,1.2865148 0 0 1 0.52732,-0.0967 1.6288493,1.6288493 0 0 1 0.73436,0.154612 1.3555339,1.3555339 0 0 1 0.4997,0.425159 1.816581,1.816581 0 0 1 0.27607,0.646009 3.6055543,3.6055543 0 0 1 0.0856,0.828231 3.1003351,3.1003351 0 0 1 -0.0994,0.80614 1.8856001,1.8856001 0 0 1 -0.30093,0.64602 1.4411176,1.4411176 0 0 1 -0.49694,0.44173 1.4880505,1.4880505 0 0 1 -0.69847,0.157361 1.3803808,1.3803808 0 0 1 -0.75092,-0.187741 1.3030794,1.3030794 0 0 1 -0.46656,-0.571481 h -0.0138 v 2.258322 h -0.48314 z m 2.74144,1.380389 a 1.5819164,1.5819164 0 0 0 -0.1822,-0.52179 1.1291514,1.1291514 0 0 0 -0.35612,-0.383751 0.99663491,0.99663491 0 0 0 -0.55217,-0.149069 0.95522341,0.95522341 0 0 0 -0.55216,0.151839 1.1595198,1.1595198 0 0 0 -0.35335,0.394782 1.8552317,1.8552317 0 0 0 -0.19603,0.527309 2.5647474,2.5647474 0 0 0 0,1.1043 1.8552317,1.8552317 0 0 0 0.19603,0.527309 1.1595198,1.1595198 0 0 0 0.35335,0.394801 0.93313739,0.93313739 0 0 0 0.55216,0.151839 0.99663491,0.99663491 0 0 0 0.55217,-0.149098 1.1484768,1.1484768 0 0 0 0.35612,-0.380971 1.6178062,1.6178062 0 0 0 0.1822,-0.52455 3.3432821,3.3432821 0 0 0 0,-1.14848 z"
         class="cls-1"
         inkscape:connector-curvature="0" />
      <path
         style="fill:#ffffff;stroke-width:0.27607614"
         id="path44"
         d="m 374.06619,56.755376 a 2.534379,2.534379 0 0 1 -0.55217,0.160121 3.3294783,3.3294783 0 0 1 -0.57423,0.0552 1.9849875,1.9849875 0 0 1 -0.82823,-0.154591 1.3803808,1.3803808 0 0 1 -0.55215,-0.427918 1.7641266,1.7641266 0 0 1 -0.30645,-0.648772 3.3129138,3.3129138 0 0 1 -0.0939,-0.81167 2.7193499,2.7193499 0 0 1 0.11871,-0.828228 1.9325329,1.9325329 0 0 1 0.33129,-0.64603 1.5736341,1.5736341 0 0 1 0.52179,-0.419611 1.4714859,1.4714859 0 0 1 0.67086,-0.15462 1.4963328,1.4963328 0 0 1 0.70952,0.157369 1.3803808,1.3803808 0 0 1 0.48037,0.422391 1.7917341,1.7917341 0 0 1 0.27609,0.615649 3.0699668,3.0699668 0 0 1 0.0884,0.739891 v 0.2457 h -2.66414 a 1.9987913,1.9987913 0 0 0 0.0828,0.58529 1.4328353,1.4328353 0 0 0 0.2457,0.469329 1.1622805,1.1622805 0 0 0 0.40033,0.317481 1.2340604,1.2340604 0 0 0 0.55213,0.118729 1.5708732,1.5708732 0 0 0 0.27609,-0.0276 c 0.1049,-0.01659 0.20705,-0.0387 0.30644,-0.0635 a 2.1009394,2.1009394 0 0 0 0.27608,-0.0911 1.2312996,1.2312996 0 0 0 0.21809,-0.107669 z m -0.23743,-2.10371 a 2.302475,2.302475 0 0 0 -0.0525,-0.496929 1.4549213,1.4549213 0 0 0 -0.17118,-0.436211 0.902769,0.902769 0 0 0 -0.30921,-0.303678 0.8806829,0.8806829 0 0 0 -0.46104,-0.115941 0.95246275,0.95246275 0 0 0 -0.4776,0.12146 1.2671896,1.2671896 0 0 0 -0.35891,0.31473 1.3997061,1.3997061 0 0 0 -0.22914,0.4362 1.5653518,1.5653518 0 0 0 -0.0801,0.480369 z"
         class="cls-1"
         inkscape:connector-curvature="0" />
      <path
         style="fill:#ffffff;stroke-width:0.27607614"
         id="path46"
         d="m 375.28091,53.895236 c 0,-0.146328 0,-0.29817 0,-0.450009 0,-0.151849 -0.0138,-0.30921 -0.0276,-0.466579 h 0.46657 v 0.695719 h 0.0138 a 2.5785512,2.5785512 0 0 1 0.1546,-0.276079 1.0297641,1.0297641 0 0 1 0.23742,-0.253992 1.1595198,1.1595198 0 0 1 0.35338,-0.187738 1.5681125,1.5681125 0 0 1 0.51627,-0.0746 1.4632036,1.4632036 0 0 1 0.61288,0.11594 1.1319123,1.1319123 0 0 1 0.41411,0.31473 1.2589073,1.2589073 0 0 1 0.23191,0.472091 2.291432,2.291432 0 0 1 0.0718,0.59632 v 2.484689 h -0.48038 v -2.36874 a 1.5929593,1.5929593 0 0 0 -0.21534,-0.880679 0.78129548,0.78129548 0 0 0 -0.70951,-0.328531 1.1043045,1.1043045 0 0 0 -0.55215,0.129771 1.0601324,1.0601324 0 0 0 -0.35338,0.336801 1.3803808,1.3803808 0 0 0 -0.19326,0.45829 2.2086092,2.2086092 0 0 0 -0.0552,0.496938 v 2.15615 h -0.48589 z"
         class="cls-1"
         inkscape:connector-curvature="0" />
      <path
         style="fill:#ffffff;stroke-width:0.27607614"
         id="path48"
         d="m 381.56165,56.197706 a 1.874557,1.874557 0 0 0 0.51902,0.2319 2.3742549,2.3742549 0 0 0 0.65984,0.0801 1.5653518,1.5653518 0 0 0 0.46103,-0.0635 1.1263906,1.1263906 0 0 0 0.38375,-0.198769 0.94418047,0.94418047 0 0 0 0.2595,-0.339579 1.1650414,1.1650414 0 0 0 0.0939,-0.491411 0.64049667,0.64049667 0 0 0 -0.17945,-0.452771 2.0208773,2.0208773 0 0 0 -0.45552,-0.36718 c -0.18221,-0.115959 -0.37823,-0.22914 -0.58806,-0.33681 a 4.7926821,4.7926821 0 0 1 -0.58802,-0.364418 1.9076862,1.9076862 0 0 1 -0.45554,-0.450012 1.0242424,1.0242424 0 0 1 -0.17945,-0.604599 1.2671896,1.2671896 0 0 1 0.12977,-0.577011 1.3472516,1.3472516 0 0 1 0.35888,-0.441719 1.6564568,1.6564568 0 0 1 0.55216,-0.276069 2.2086092,2.2086092 0 0 1 0.65982,-0.0939 4.3371564,4.3371564 0 0 1 0.4859,0.0331 2.4046232,2.4046232 0 0 1 0.55215,0.140812 l -0.0856,0.483129 a 1.4079884,1.4079884 0 0 0 -0.43897,-0.14908 2.8767132,2.8767132 0 0 0 -0.53281,-0.0497 1.758605,1.758605 0 0 0 -0.41135,0.047 1.1043045,1.1043045 0 0 0 -0.37271,0.151842 0.82822844,0.82822844 0 0 0 -0.27608,0.276079 0.85859681,0.85859681 0 0 0 -0.1049,0.4362 0.65706122,0.65706122 0 0 0 0.17943,0.461039 2.1147432,2.1147432 0 0 0 0.45552,0.35338 q 0.2761,0.165661 0.58806,0.323012 a 3.887152,3.887152 0 0 1 0.59081,0.361659 1.9490975,1.9490975 0 0 1 0.45276,0.47761 1.1678021,1.1678021 0 0 1 0.18221,0.66258 1.3555339,1.3555339 0 0 1 -0.56597,1.15951 1.7696481,1.7696481 0 0 1 -0.55215,0.262289 2.3218004,2.3218004 0 0 1 -0.62116,0.0856 3.205244,3.205244 0 0 1 -0.69019,-0.069 3.111378,3.111378 0 0 1 -0.51627,-0.16012 z"
         class="cls-1"
         inkscape:connector-curvature="0" />
      <path
         style="fill:#ffffff;stroke-width:0.27607614"
         id="path50"
         d="m 385.28591,54.160256 a 1.8717962,1.8717962 0 0 1 0.32854,-0.654299 1.6371316,1.6371316 0 0 1 0.55216,-0.45276 2.0733318,2.0733318 0 0 1 1.63712,0 1.6371316,1.6371316 0 0 1 0.56596,0.45276 1.9325329,1.9325329 0 0 1 0.32853,0.654299 2.7883691,2.7883691 0 0 1 0,1.53498 1.9325329,1.9325329 0 0 1 -0.32853,0.654312 1.6067632,1.6067632 0 0 1 -0.56596,0.45275 2.0733318,2.0733318 0 0 1 -1.63712,0 1.6067632,1.6067632 0 0 1 -0.55216,-0.45275 1.8717962,1.8717962 0 0 1 -0.32854,-0.654312 2.7883691,2.7883691 0 0 1 0,-1.53498 z m 0.50523,1.402461 a 1.5349833,1.5349833 0 0 0 0.24847,0.51903 1.1208691,1.1208691 0 0 0 0.40583,0.347859 1.2699502,1.2699502 0 0 0 1.1043,0 1.1678021,1.1678021 0 0 0 0.40584,-0.347859 1.5349833,1.5349833 0 0 0 0.24848,-0.51903 2.3991017,2.3991017 0 0 0 0,-1.269939 1.5349833,1.5349833 0 0 0 -0.24848,-0.519031 1.1512375,1.1512375 0 0 0 -0.96075,-0.47484 1.1567591,1.1567591 0 0 0 -0.55214,0.12699 1.1208691,1.1208691 0 0 0 -0.39481,0.361659 1.5349833,1.5349833 0 0 0 -0.24847,0.51903 2.3991017,2.3991017 0 0 0 0,1.26995 z"
         class="cls-1"
         inkscape:connector-curvature="0" />
      <path
         style="fill:#ffffff;stroke-width:0.27607614"
         id="path52"
         d="m 392.77311,55.960277 c 0,0.149069 0,0.298159 0,0.450001 0,0.151839 0,0.309189 0.0276,0.466569 h -0.46657 v -0.695709 h -0.0166 a 1.9601407,1.9601407 0 0 1 -0.15184,0.276069 1.1043045,1.1043045 0 0 1 -0.23742,0.256749 1.2009312,1.2009312 0 0 1 -0.35615,0.18497 1.5570695,1.5570695 0 0 1 -0.51626,0.0746 1.457682,1.457682 0 0 1 -0.61013,-0.11594 1.1263906,1.1263906 0 0 1 -0.4141,-0.31196 1.2312996,1.2312996 0 0 1 -0.23191,-0.474861 2.291432,2.291432 0 0 1 -0.0746,-0.596331 v -2.484678 h 0.48313 v 2.368738 a 1.6122847,1.6122847 0 0 0 0.21258,0.880681 0.78957779,0.78957779 0 0 0 0.71227,0.32852 1.0794577,1.0794577 0 0 0 0.55216,-0.129741 1.018721,1.018721 0 0 0 0.35614,-0.33682 1.3803808,1.3803808 0 0 0 0.19324,-0.45828 2.3825371,2.3825371 0 0 0 0.0552,-0.496948 v -2.15615 h 0.48313 z"
         class="cls-1"
         inkscape:connector-curvature="0" />
      <path
         style="fill:#ffffff;stroke-width:0.27607614"
         id="path54"
         d="m 393.97956,53.851048 v -0.276072 c 0,-0.0773 0,-0.149079 0,-0.215349 0,-0.0663 0,-0.12699 0,-0.18772 0,-0.0608 0,-0.12148 -0.0166,-0.193259 h 0.4831 v 0.74817 0 a 2.3991017,2.3991017 0 0 1 0.16289,-0.31197 1.2340604,1.2340604 0 0 1 0.21811,-0.276072 1.0242424,1.0242424 0 0 1 0.27606,-0.18773 0.86687911,0.86687911 0 0 1 0.33958,-0.069 1.0325247,1.0325247 0 0 1 0.17945,0.01659 c 0.0663,0 0.11596,0.01931 0.15737,0.0304 v 0.50523 a 1.2257781,1.2257781 0 0 0 -0.35062,-0.047 0.75644864,0.75644864 0 0 0 -0.47761,0.146312 0.99939565,0.99939565 0 0 0 -0.2954,0.369948 1.8938824,1.8938824 0 0 0 -0.15185,0.505222 3.3819327,3.3819327 0 0 0 -0.0469,0.552159 v 1.932519 H 393.974 Z"
         class="cls-1"
         inkscape:connector-curvature="0" />
      <path
         style="fill:#ffffff;stroke-width:0.27607614"
         id="path56"
         d="m 398.9296,53.511487 a 3.3598466,3.3598466 0 0 0 -0.41686,-0.140801 1.6288493,1.6288493 0 0 0 -0.41688,-0.058 1.5460265,1.5460265 0 0 0 -0.6267,0.12147 1.34173,1.34173 0 0 0 -0.46381,0.336809 1.4355959,1.4355959 0 0 0 -0.27607,0.51625 2.0843749,2.0843749 0 0 0 -0.0967,0.65432 1.9684229,1.9684229 0 0 0 0.0967,0.632211 1.5294619,1.5294619 0 0 0 0.27607,0.51625 1.319644,1.319644 0 0 0 1.03804,0.48038 1.9573798,1.9573798 0 0 0 0.44449,-0.0469 2.777326,2.777326 0 0 0 0.43621,-0.129759 l 0.0469,0.45276 a 2.4570777,2.4570777 0 0 1 -0.48592,0.110429 5.0273466,5.0273466 0 0 1 -0.51625,0.0275 1.8938824,1.8938824 0 0 1 -0.82822,-0.165632 1.7033898,1.7033898 0 0 1 -0.58252,-0.447249 1.9104469,1.9104469 0 0 1 -0.34785,-0.65428 2.6641348,2.6641348 0 0 1 -0.1132,-0.77578 2.3218004,2.3218004 0 0 1 0.13804,-0.82823 1.8552317,1.8552317 0 0 1 0.38926,-0.64602 1.7199544,1.7199544 0 0 1 0.60738,-0.4224 2.0871357,2.0871357 0 0 1 0.79232,-0.149079 2.5978765,2.5978765 0 0 1 0.59357,0.058 c 0.16013,0.0387 0.2761,0.0718 0.34786,0.0967 z"
         class="cls-1"
         inkscape:connector-curvature="0" />
      <path
         style="fill:#ffffff;stroke-width:0.27607614"
         id="path58"
         d="m 402.39989,56.755376 a 2.534379,2.534379 0 0 1 -0.55217,0.160121 3.3294783,3.3294783 0 0 1 -0.57422,0.0552 1.9849875,1.9849875 0 0 1 -0.82823,-0.154591 1.3803808,1.3803808 0 0 1 -0.55217,-0.427918 1.7641266,1.7641266 0 0 1 -0.30644,-0.648772 3.3129138,3.3129138 0 0 1 -0.0939,-0.81167 2.7193499,2.7193499 0 0 1 0.11871,-0.828228 1.9325329,1.9325329 0 0 1 0.33129,-0.64603 1.5901987,1.5901987 0 0 1 0.51902,-0.419611 1.4908111,1.4908111 0 0 1 0.67364,-0.15462 1.4770074,1.4770074 0 0 1 0.70674,0.157369 1.3500123,1.3500123 0 0 1 0.48315,0.422391 1.8469494,1.8469494 0 0 1 0.27606,0.615649 3.0699668,3.0699668 0 0 1 0.0884,0.739891 v 0.2457 h -2.66966 a 1.9987913,1.9987913 0 0 0 0.0828,0.58529 1.4328353,1.4328353 0 0 0 0.2457,0.469329 1.1622805,1.1622805 0 0 0 0.40031,0.317481 1.2257781,1.2257781 0 0 0 0.55215,0.118729 1.5708732,1.5708732 0 0 0 0.27608,-0.0276 c 0.10489,-0.01659 0.20706,-0.0387 0.30644,-0.0635 a 2.1009394,2.1009394 0 0 0 0.27608,-0.0911 1.2312996,1.2312996 0 0 0 0.21809,-0.107669 z m -0.23744,-2.10371 a 2.302475,2.302475 0 0 0 -0.0525,-0.496929 1.4549213,1.4549213 0 0 0 -0.17116,-0.436211 0.902769,0.902769 0 0 0 -0.3092,-0.303678 0.8806829,0.8806829 0 0 0 -0.46105,-0.115941 0.95246275,0.95246275 0 0 0 -0.47761,0.12146 1.2671896,1.2671896 0 0 0 -0.3589,0.31473 1.3997061,1.3997061 0 0 0 -0.22914,0.4362 1.4852897,1.4852897 0 0 0 -0.0801,0.480369 z"
         class="cls-1"
         inkscape:connector-curvature="0" />
      <path
         style="fill:#ffffff;stroke-width:0.27607614"
         id="path60"
         d="m 405.64929,56.197706 a 1.874557,1.874557 0 0 0 0.51902,0.2319 2.3521687,2.3521687 0 0 0 0.65708,0.0801 1.5957201,1.5957201 0 0 0 0.46381,-0.0635 1.1043045,1.1043045 0 0 0 0.38097,-0.198769 0.92209435,0.92209435 0 0 0 0.26229,-0.339579 1.1650414,1.1650414 0 0 0 0.0939,-0.491411 0.64049667,0.64049667 0 0 0 -0.17945,-0.452771 2.0208773,2.0208773 0 0 0 -0.45554,-0.36718 c -0.18221,-0.115959 -0.3782,-0.22914 -0.58804,-0.33681 a 4.7926821,4.7926821 0 0 1 -0.58804,-0.364418 1.9076862,1.9076862 0 0 1 -0.45552,-0.450012 1.0049172,1.0049172 0 0 1 -0.17945,-0.604599 1.2340604,1.2340604 0 0 1 0.12975,-0.577011 1.3472516,1.3472516 0 0 1 0.3589,-0.441719 1.6564568,1.6564568 0 0 1 0.53836,-0.276069 2.2472598,2.2472598 0 0 1 0.66258,-0.0939 4.3371564,4.3371564 0 0 1 0.48589,0.0331 2.4046232,2.4046232 0 0 1 0.55215,0.140812 l -0.0856,0.483129 a 1.4355959,1.4355959 0 0 0 -0.43896,-0.14908 2.8767132,2.8767132 0 0 0 -0.53281,-0.0497 1.7420405,1.7420405 0 0 0 -0.41135,0.047 1.1043045,1.1043045 0 0 0 -0.37271,0.151842 0.87240062,0.87240062 0 0 0 -0.27608,0.276079 0.85583604,0.85583604 0 0 0 -0.10215,0.4362 0.65706122,0.65706122 0 0 0 0.17946,0.461039 1.9877482,1.9877482 0 0 0 0.45551,0.35338 q 0.27608,0.165661 0.58804,0.323012 a 3.7297887,3.7297887 0 0 1 0.58805,0.361659 1.9104469,1.9104469 0 0 1 0.45553,0.47761 1.1650414,1.1650414 0 0 1 0.17946,0.66258 1.4604428,1.4604428 0 0 1 -0.15462,0.692949 1.3997061,1.3997061 0 0 1 -0.41136,0.466561 1.7420405,1.7420405 0 0 1 -0.56594,0.262289 2.2886712,2.2886712 0 0 1 -0.61841,0.0856 3.2521771,3.2521771 0 0 1 -0.69296,-0.069 3.1969617,3.1969617 0 0 1 -0.51625,-0.16012 z"
         class="cls-1"
         inkscape:connector-curvature="0" />
      <path
         style="fill:#ffffff;stroke-width:0.27607614"
         id="path62"
         d="m 409.36803,54.160256 a 1.8717962,1.8717962 0 0 1 0.32855,-0.654299 1.6122847,1.6122847 0 0 1 0.55214,-0.45276 2.0733318,2.0733318 0 0 1 1.63713,0 1.6371316,1.6371316 0 0 1 0.56596,0.45276 1.9325329,1.9325329 0 0 1 0.32852,0.654299 2.7883691,2.7883691 0 0 1 0,1.53498 1.9325329,1.9325329 0 0 1 -0.32852,0.654312 1.6067632,1.6067632 0 0 1 -0.56596,0.45275 2.0733318,2.0733318 0 0 1 -1.63713,0 1.5819164,1.5819164 0 0 1 -0.55214,-0.45275 1.8717962,1.8717962 0 0 1 -0.32855,-0.654312 2.7883691,2.7883691 0 0 1 0,-1.53498 z m 0.50523,1.402461 a 1.5349833,1.5349833 0 0 0 0.24846,0.51903 1.1346729,1.1346729 0 0 0 0.40309,0.347859 1.1733236,1.1733236 0 0 0 0.55214,0.127 1.1512375,1.1512375 0 0 0 0.96075,-0.474859 1.5349833,1.5349833 0 0 0 0.24846,-0.51903 2.4846853,2.4846853 0 0 0 0,-1.269939 1.5349833,1.5349833 0 0 0 -0.24846,-0.519031 1.2312996,1.2312996 0 0 0 -1.51565,-0.34785 1.1346729,1.1346729 0 0 0 -0.40033,0.361659 1.5349833,1.5349833 0 0 0 -0.24846,0.51903 2.3991017,2.3991017 0 0 0 0,1.26995 z"
         class="cls-1"
         inkscape:connector-curvature="0" />
      <path
         style="fill:#ffffff;stroke-width:0.27607614"
         id="path64"
         d="m 414.13864,53.390006 h -0.78681 v -0.411358 h 0.78681 v -0.276072 c 0,-0.2043 0,-0.403079 0.0193,-0.59908 a 1.6233277,1.6233277 0 0 1 0.1187,-0.527309 0.82822844,0.82822844 0 0 1 0.30921,-0.37547 1.0490894,1.0490894 0 0 1 0.58528,-0.140801 1.3362085,1.3362085 0 0 1 0.24847,0.02209 0.55215229,0.55215229 0 0 1 0.2043,0.069 l -0.0304,0.405829 a 0.6653435,0.6653435 0 0 0 -0.17669,-0.0607 0.85031453,0.85031453 0 0 0 -0.20705,-0.0249 0.51902315,0.51902315 0 0 0 -0.36719,0.118708 0.65982199,0.65982199 0 0 0 -0.17116,0.29541 1.3803808,1.3803808 0 0 0 -0.0497,0.380971 v 0.72058 h 0.87792 v 0.41135 h -0.87792 v 3.486841 h -0.48313 z"
         class="cls-1"
         inkscape:connector-curvature="0" />
      <path
         style="fill:#ffffff;stroke-width:0.27607614"
         id="path66"
         d="m 418.03959,53.390006 h -0.88619 v 2.523342 a 0.86963986,0.86963986 0 0 0 0.11319,0.45552 0.43343954,0.43343954 0 0 0 0.40583,0.187738 0.86411835,0.86411835 0 0 0 0.23742,-0.0276 c 0.0663,-0.01659 0.13527,-0.0387 0.20706,-0.0635 l 0.0304,0.397539 a 1.3334477,1.3334477 0 0 1 -0.24847,0.0718 1.5487872,1.5487872 0 0 1 -0.34234,0.0359 1.0049172,1.0049172 0 0 1 -0.4997,-0.104899 0.64601818,0.64601818 0 0 1 -0.27605,-0.276082 1.2009312,1.2009312 0 0 1 -0.10216,-0.411348 c -0.0138,-0.16012 -0.0193,-0.328522 -0.0193,-0.505232 v -2.280378 h -0.76476 v -0.411342 h 0.76476 v -0.94142 l 0.48311,-0.16841 v 1.1043 h 0.88622 z"
         class="cls-1"
         inkscape:connector-curvature="0" />
      <path
         style="fill:#ffffff;stroke-width:0.27607614"
         id="path68"
         d="m 422.90958,56.876847 h -0.57975 l -1.0629,-3.36536 h -0.0166 l -1.0629,3.370879 h -0.57976 l -1.25892,-3.903718 h 0.52731 l 1.02426,3.3709 h 0.0138 l 1.08775,-3.3709 h 0.57976 l 1.03252,3.3709 h 0.0166 l 1.0767,-3.3709 h 0.48313 z"
         class="cls-1"
         inkscape:connector-curvature="0" />
      <path
         style="fill:#ffffff;stroke-width:0.27607614"
         id="path70"
         d="m 427.09489,56.250147 h -0.0166 a 1.1319123,1.1319123 0 0 1 -0.2181,0.31197 1.3334477,1.3334477 0 0 1 -0.30092,0.22362 1.5322226,1.5322226 0 0 1 -0.72055,0.184971 1.5211796,1.5211796 0 0 1 -0.66536,-0.12423 1.1043045,1.1043045 0 0 1 -0.38926,-0.29264 0.94418047,0.94418047 0 0 1 -0.18221,-0.364421 1.4411176,1.4411176 0 0 1 -0.0469,-0.320249 1.1374337,1.1374337 0 0 1 0.23467,-0.764731 1.3803808,1.3803808 0 0 1 0.58803,-0.40859 2.6530916,2.6530916 0 0 1 0.77577,-0.165651 c 0.27609,-0.01929 0.55217,-0.0304 0.80339,-0.0304 h 0.0911 v -0.198769 a 1.1926489,1.1926489 0 0 0 -0.19878,-0.753689 0.82822844,0.82822844 0 0 0 -0.68741,-0.248462 2.4846853,2.4846853 0 0 0 -0.59357,0.0718 1.9076862,1.9076862 0 0 0 -0.55216,0.248451 v -0.466561 c 0.0773,-0.0332 0.16289,-0.0691 0.25675,-0.10215 a 2.3494081,2.3494081 0 0 1 0.29817,-0.0828 c 0.10491,-0.0249 0.20705,-0.0442 0.3092,-0.058 a 1.7751695,1.7751695 0 0 1 0.27607,-0.02479 1.3803808,1.3803808 0 0 1 1.04632,0.345101 1.5874378,1.5874378 0 0 1 0.32302,1.104289 v 1.719961 c 0,0.157361 0,0.300929 0,0.427918 a 3.1748756,3.1748756 0 0 0 0.0331,0.389261 h -0.47209 z m -0.047,-1.336199 h -0.14078 q -0.31474,0 -0.63774,0.02479 a 2.3052358,2.3052358 0 0 0 -0.58804,0.124241 1.0573716,1.0573716 0 0 0 -0.43345,0.276079 0.74264483,0.74264483 0 0 0 -0.16839,0.507979 0.61012829,0.61012829 0 0 0 0.23741,0.552151 0.99663491,0.99663491 0 0 0 0.57424,0.160121 1.1567591,1.1567591 0 0 0 0.65707,-0.160121 0.97730953,0.97730953 0 0 0 0.34509,-0.386511 1.3803808,1.3803808 0 0 0 0.12975,-0.463809 c 0.0138,-0.157361 0.0221,-0.289881 0.0221,-0.39754 z"
         class="cls-1"
         inkscape:connector-curvature="0" />
      <path
         style="fill:#ffffff;stroke-width:0.27607614"
         id="path72"
         d="m 428.67682,53.851048 v -0.276072 c 0,-0.0773 0,-0.149079 0,-0.215349 0,-0.0663 0,-0.12699 0,-0.18772 0,-0.0608 0,-0.12148 -0.0138,-0.193259 h 0.45276 v 0.74817 h 0.0166 a 2.7607615,2.7607615 0 0 1 0.16012,-0.31197 1.319644,1.319644 0 0 1 0.21809,-0.276072 1.0822185,1.0822185 0 0 1 0.27609,-0.18773 0.85859681,0.85859681 0 0 1 0.33958,-0.069 1.0573716,1.0573716 0 0 1 0.17944,0.01659 c 0.0635,0 0.11596,0.01931 0.15738,0.0304 v 0.50523 a 1.2451033,1.2451033 0 0 0 -0.35338,-0.047 0.76197018,0.76197018 0 0 0 -0.47762,0.146312 0.99111345,0.99111345 0 0 0 -0.29264,0.369948 1.8966431,1.8966431 0 0 0 -0.15461,0.505222 3.3681292,3.3681292 0 0 0 -0.0442,0.552159 v 1.932519 h -0.48312 z"
         class="cls-1"
         inkscape:connector-curvature="0" />
      <path
         style="fill:#ffffff;stroke-width:0.27607614"
         id="path74"
         d="m 433.70138,56.755376 a 2.534379,2.534379 0 0 1 -0.55214,0.160121 3.3294783,3.3294783 0 0 1 -0.57425,0.0552 1.9987913,1.9987913 0 0 1 -0.82823,-0.154591 1.3803808,1.3803808 0 0 1 -0.55213,-0.427918 1.7641266,1.7641266 0 0 1 -0.30645,-0.648772 3.3129138,3.3129138 0 0 1 -0.0967,-0.81167 2.8076946,2.8076946 0 0 1 0.1187,-0.828228 1.9877482,1.9877482 0 0 1 0.33404,-0.64603 1.5349833,1.5349833 0 0 1 0.51902,-0.419611 1.6040024,1.6040024 0 0 1 1.38039,0 1.3997061,1.3997061 0 0 1 0.48313,0.422389 1.7889735,1.7889735 0 0 1 0.27608,0.615651 2.9374502,2.9374502 0 0 1 0.0884,0.739881 v 0.2457 h -2.66689 a 1.9987913,1.9987913 0 0 0 0.0856,0.58529 1.3803808,1.3803808 0 0 0 0.24571,0.469328 1.1374337,1.1374337 0 0 0 0.4003,0.317482 1.2257781,1.2257781 0 0 0 0.55216,0.118708 1.5929593,1.5929593 0 0 0 0.27607,-0.0276 c 0.10491,-0.01659 0.20706,-0.0387 0.30645,-0.0634 a 2.1009394,2.1009394 0 0 0 0.27607,-0.0911 1.3362085,1.3362085 0 0 0 0.2181,-0.107669 z m -0.23741,-2.10371 a 2.302475,2.302475 0 0 0 -0.0525,-0.496929 1.3803808,1.3803808 0 0 0 -0.17393,-0.436211 0.8806829,0.8806829 0 0 0 -0.30919,-0.303678 0.86135758,0.86135758 0 0 0 -0.45829,-0.115941 0.94418047,0.94418047 0 0 0 -0.47762,0.12146 1.2671896,1.2671896 0 0 0 -0.35889,0.31473 1.3997061,1.3997061 0 0 0 -0.22914,0.4362 1.4908111,1.4908111 0 0 0 -0.0828,0.480369 z"
         class="cls-1"
         inkscape:connector-curvature="0" />
      <path
         style="fill:#ffffff;stroke-width:0.27607614"
         id="path76"
         d="m 440.75238,52.131097 a 1.9049254,1.9049254 0 0 0 -0.57977,-0.179451 4.1411422,4.1411422 0 0 0 -0.61288,-0.0497 2.3466472,2.3466472 0 0 0 -0.9221,0.17117 1.8828393,1.8828393 0 0 0 -0.67638,0.483139 2.117504,2.117504 0 0 0 -0.41964,0.72884 2.8159768,2.8159768 0 0 0 -0.14633,0.919332 2.9181248,2.9181248 0 0 0 0.14081,0.927608 1.9767052,1.9767052 0 0 0 0.41411,0.72608 1.8497101,1.8497101 0 0 0 0.67639,0.474861 2.3549294,2.3549294 0 0 0 0.93314,0.171159 c 0.0856,0 0.18221,0 0.28987,0 0.10767,0 0.21534,-0.01929 0.32301,-0.0332 a 2.4211878,2.4211878 0 0 0 0.31198,-0.069 1.1346729,1.1346729 0 0 0 0.27606,-0.115951 l 0.0304,0.461039 a 0.99939565,0.99939565 0 0 1 -0.26228,0.110451 c -0.10491,0.0276 -0.21534,0.0497 -0.33129,0.069 -0.11594,0.01929 -0.22639,0.0304 -0.33957,0.0387 -0.11319,0.008 -0.20983,0 -0.28989,0 a 3.0368378,3.0368378 0 0 1 -1.13191,-0.198771 2.3632117,2.3632117 0 0 1 -0.84478,-0.552159 2.4846853,2.4846853 0 0 1 -0.53283,-0.8724 3.3129138,3.3129138 0 0 1 -0.18221,-1.1264 3.136225,3.136225 0 0 1 0.18772,-1.104292 2.4846853,2.4846853 0 0 1 0.53836,-0.877929 2.4515562,2.4515562 0 0 1 0.84755,-0.56872 2.9346895,2.9346895 0 0 1 1.1181,-0.20152 c 0.0773,0 0.17117,0 0.27609,0 l 0.34509,0.0331 a 2.987144,2.987144 0 0 1 0.33405,0.0635 1.2589073,1.2589073 0 0 1 0.26227,0.0911 z"
         class="cls-1"
         inkscape:connector-curvature="0" />
      <path
         style="fill:#ffffff;stroke-width:0.27607614"
         id="path78"
         d="m 441.94503,54.160256 a 1.9325329,1.9325329 0 0 1 0.32853,-0.654299 1.6371316,1.6371316 0 0 1 0.55215,-0.45276 2.0733318,2.0733318 0 0 1 1.63714,0 1.6371316,1.6371316 0 0 1 0.56594,0.45276 1.8717962,1.8717962 0 0 1 0.32854,0.654299 2.7883691,2.7883691 0 0 1 0,1.53498 1.8717962,1.8717962 0 0 1 -0.32854,0.654312 1.6067632,1.6067632 0 0 1 -0.56594,0.45275 2.0733318,2.0733318 0 0 1 -1.63714,0 1.6067632,1.6067632 0 0 1 -0.55215,-0.45275 1.9325329,1.9325329 0 0 1 -0.32853,-0.654312 2.7883691,2.7883691 0 0 1 0,-1.53498 z m 0.50521,1.402461 a 1.5349833,1.5349833 0 0 0 0.24847,0.51903 1.1512375,1.1512375 0 0 0 0.96075,0.474859 1.1567591,1.1567591 0 0 0 0.55215,-0.127 1.1429552,1.1429552 0 0 0 0.40583,-0.347859 1.5349833,1.5349833 0 0 0 0.24847,-0.51903 2.3991017,2.3991017 0 0 0 0,-1.269939 1.5349833,1.5349833 0 0 0 -0.24847,-0.519031 1.1429552,1.1429552 0 0 0 -0.40583,-0.34785 1.2699502,1.2699502 0 0 0 -1.10431,0 1.1678021,1.1678021 0 0 0 -0.40859,0.361659 1.5349833,1.5349833 0 0 0 -0.24847,0.51903 2.3991017,2.3991017 0 0 0 0,1.26995 z"
         class="cls-1"
         inkscape:connector-curvature="0" />
      <path
         style="fill:#ffffff;stroke-width:0.27607614"
         id="path80"
         d="m 446.38708,53.895236 c 0,-0.146328 0,-0.29817 0,-0.450009 0,-0.151849 0,-0.30921 -0.0276,-0.466579 h 0.46657 v 0.695719 h 0.0166 a 2.5288574,2.5288574 0 0 1 0.15184,-0.276079 1.0849793,1.0849793 0 0 1 0.23743,-0.253992 1.145716,1.145716 0 0 1 0.35614,-0.187738 1.5570695,1.5570695 0 0 1 0.51626,-0.0746 1.4632036,1.4632036 0 0 1 0.61288,0.11594 1.1208691,1.1208691 0 0 1 0.41135,0.31473 1.2644288,1.2644288 0 0 1 0.23467,0.472091 2.4184271,2.4184271 0 0 1 0.0718,0.59632 v 2.484689 h -0.48314 v -2.36874 a 1.5929593,1.5929593 0 0 0 -0.21257,-0.880679 0.78957779,0.78957779 0 0 0 -0.71228,-0.328531 1.0794577,1.0794577 0 0 0 -0.55214,0.129771 1.0435678,1.0435678 0 0 0 -0.35615,0.336801 1.4383567,1.4383567 0 0 0 -0.1905,0.45829 2.2086092,2.2086092 0 0 0 -0.058,0.496938 v 2.15615 h -0.48319 z"
         class="cls-1"
         inkscape:connector-curvature="0" />
      <path
         style="fill:#ffffff;stroke-width:0.27607614"
         id="path82"
         d="m 450.96995,53.390006 h -0.78956 v -0.411358 h 0.78956 v -0.276072 c 0,-0.2043 0,-0.403079 0.0193,-0.59908 a 1.5570695,1.5570695 0 0 1 0.11871,-0.527309 0.82822844,0.82822844 0 0 1 0.30921,-0.37547 1.0435678,1.0435678 0 0 1 0.58528,-0.140801 1.3803808,1.3803808 0 0 1 0.24847,0.02209 0.56871687,0.56871687 0 0 1 0.20153,0.069 l -0.0304,0.405829 a 0.63221439,0.63221439 0 0 0 -0.17668,-0.0607 0.84479302,0.84479302 0 0 0 -0.2043,-0.0249 0.51074087,0.51074087 0 0 0 -0.36718,0.118708 0.6377359,0.6377359 0 0 0 -0.17393,0.29541 1.3803808,1.3803808 0 0 0 -0.0497,0.380971 v 0.72058 h 0.88068 v 0.41135 h -0.88068 v 3.486841 h -0.48038 z"
         class="cls-1"
         inkscape:connector-curvature="0" />
      <path
         style="fill:#ffffff;stroke-width:0.27607614"
         id="path84"
         d="m 455.80128,56.755376 a 2.534379,2.534379 0 0 1 -0.55215,0.160121 3.3294783,3.3294783 0 0 1 -0.57424,0.0552 1.9849875,1.9849875 0 0 1 -0.82823,-0.154591 1.3803808,1.3803808 0 0 1 -0.55214,-0.427918 1.7641266,1.7641266 0 0 1 -0.30644,-0.648772 3.3129138,3.3129138 0 0 1 -0.0939,-0.81167 2.7193499,2.7193499 0 0 1 0.11872,-0.828228 1.9325329,1.9325329 0 0 1 0.33128,-0.64603 1.5901987,1.5901987 0 0 1 0.51903,-0.419611 1.4908111,1.4908111 0 0 1 0.67363,-0.15462 1.4770074,1.4770074 0 0 1 0.70675,0.157369 1.3500123,1.3500123 0 0 1 0.48314,0.422391 1.7917341,1.7917341 0 0 1 0.27608,0.615649 3.0699668,3.0699668 0 0 1 0.0884,0.739891 v 0.2457 h -2.66967 a 1.9987913,1.9987913 0 0 0 0.0828,0.58529 1.4328353,1.4328353 0 0 0 0.24571,0.469329 1.1622805,1.1622805 0 0 0 0.4003,0.317481 1.2340604,1.2340604 0 0 0 0.55215,0.118729 1.5708732,1.5708732 0 0 0 0.27608,-0.0276 c 0.10492,-0.01659 0.20707,-0.0387 0.30644,-0.0635 a 2.1009394,2.1009394 0 0 0 0.27609,-0.0911 1.2312996,1.2312996 0 0 0 0.2181,-0.107669 z m -0.23742,-2.10371 a 2.302475,2.302475 0 0 0 -0.0525,-0.496929 1.4549213,1.4549213 0 0 0 -0.17118,-0.436211 0.902769,0.902769 0 0 0 -0.3092,-0.303678 0.8806829,0.8806829 0 0 0 -0.46105,-0.115941 0.95246275,0.95246275 0 0 0 -0.4776,0.12146 1.2671896,1.2671896 0 0 0 -0.35891,0.31473 1.3997061,1.3997061 0 0 0 -0.22914,0.4362 1.5653518,1.5653518 0 0 0 -0.0801,0.480369 z"
         class="cls-1"
         inkscape:connector-curvature="0" />
      <path
         style="fill:#ffffff;stroke-width:0.27607614"
         id="path86"
         d="m 456.99946,53.851048 v -0.276072 c 0,-0.0773 0,-0.149079 0,-0.215349 0,-0.0663 0,-0.12699 0,-0.18772 0,-0.0608 0,-0.12148 -0.0138,-0.193259 h 0.48039 v 0.74817 h 0.0166 a 2.7607615,2.7607615 0 0 1 0.16011,-0.31197 1.319644,1.319644 0 0 1 0.2181,-0.276072 1.0822185,1.0822185 0 0 1 0.27608,-0.18773 0.85859681,0.85859681 0 0 1 0.33958,-0.069 1.0573716,1.0573716 0 0 1 0.17944,0.01659 c 0.0635,0 0.11596,0.01931 0.15737,0.0304 v 0.50523 a 1.2451033,1.2451033 0 0 0 -0.35338,-0.047 0.75644864,0.75644864 0 0 0 -0.47761,0.146312 0.99111345,0.99111345 0 0 0 -0.29265,0.369948 1.8966431,1.8966431 0 0 0 -0.15459,0.505222 3.3681292,3.3681292 0 0 0 -0.0442,0.552159 v 1.932519 h -0.49142 z"
         class="cls-1"
         inkscape:connector-curvature="0" />
      <path
         style="fill:#ffffff;stroke-width:0.27607614"
         id="path88"
         d="m 462.03508,56.755376 a 2.534379,2.534379 0 0 1 -0.55214,0.160121 3.3294783,3.3294783 0 0 1 -0.57425,0.0552 1.9987913,1.9987913 0 0 1 -0.82823,-0.154591 1.3803808,1.3803808 0 0 1 -0.55214,-0.427918 1.7641266,1.7641266 0 0 1 -0.30645,-0.648772 3.3129138,3.3129138 0 0 1 -0.0967,-0.81167 2.8076946,2.8076946 0 0 1 0.11871,-0.828228 1.9877482,1.9877482 0 0 1 0.33405,-0.64603 1.5349833,1.5349833 0 0 1 0.51903,-0.419611 1.6040024,1.6040024 0 0 1 1.38038,0 1.3997061,1.3997061 0 0 1 0.48314,0.422389 1.7889735,1.7889735 0 0 1 0.27607,0.615651 2.9374502,2.9374502 0 0 1 0.0884,0.739881 v 0.2457 h -2.66966 a 1.9987913,1.9987913 0 0 0 0.0856,0.58529 1.3803808,1.3803808 0 0 0 0.24571,0.469328 1.1374337,1.1374337 0 0 0 0.4003,0.317482 1.2257781,1.2257781 0 0 0 0.55216,0.118708 1.5929593,1.5929593 0 0 0 0.27607,-0.0276 c 0.10491,-0.01659 0.20429,-0.0387 0.30645,-0.0634 a 2.1009394,2.1009394 0 0 0 0.27607,-0.0911 1.3362085,1.3362085 0 0 0 0.2181,-0.107669 z m -0.23742,-2.10371 a 2.302475,2.302475 0 0 0 -0.0525,-0.496929 1.3803808,1.3803808 0 0 0 -0.17393,-0.436211 0.8806829,0.8806829 0 0 0 -0.3092,-0.303678 0.86135758,0.86135758 0 0 0 -0.45829,-0.115941 0.94418047,0.94418047 0 0 0 -0.47761,0.12146 1.2671896,1.2671896 0 0 0 -0.35889,0.31473 1.3997061,1.3997061 0 0 0 -0.22915,0.4362 1.4908111,1.4908111 0 0 0 -0.0828,0.480369 z"
         class="cls-1"
         inkscape:connector-curvature="0" />
      <path
         style="fill:#ffffff;stroke-width:0.27607614"
         id="path90"
         d="m 463.2443,53.895236 c 0,-0.146328 0,-0.29817 0,-0.450009 0,-0.151849 0,-0.30921 -0.0249,-0.466579 h 0.46656 v 0.695719 h 0.0138 a 2.1699584,2.1699584 0 0 1 0.1546,-0.276079 1.0159601,1.0159601 0 0 1 0.23466,-0.253992 1.145716,1.145716 0 0 1 0.36442,-0.184968 1.5570695,1.5570695 0 0 1 0.51628,-0.0746 1.4632036,1.4632036 0 0 1 0.61288,0.115962 1.1043045,1.1043045 0 0 1 0.41135,0.314719 1.2644288,1.2644288 0 0 1 0.23467,0.472091 2.4184271,2.4184271 0 0 1 0.0718,0.596328 v 2.484692 h -0.49418 v -2.368741 a 1.5929593,1.5929593 0 0 0 -0.21533,-0.8807 0.78957779,0.78957779 0 0 0 -0.71229,-0.32852 1.0849793,1.0849793 0 0 0 -0.55213,0.12976 1.0435678,1.0435678 0 0 0 -0.35616,0.336809 1.4383567,1.4383567 0 0 0 -0.19049,0.45829 2.2086092,2.2086092 0 0 0 -0.058,0.49693 v 2.156172 h -0.48039 z"
         class="cls-1"
         inkscape:connector-curvature="0" />
      <path
         style="fill:#ffffff;stroke-width:0.27607614"
         id="path92"
         d="m 470.03301,53.511487 a 3.2135262,3.2135262 0 0 0 -0.41688,-0.140801 1.5957201,1.5957201 0 0 0 -0.41687,-0.058 1.5653518,1.5653518 0 0 0 -0.62668,0.12147 1.3555339,1.3555339 0 0 0 -0.46107,0.336809 1.4411176,1.4411176 0 0 0 -0.27607,0.51625 2.1671978,2.1671978 0 0 0 -0.0939,0.65432 2.0484849,2.0484849 0 0 0 0.0939,0.632211 1.5791555,1.5791555 0 0 0 0.27607,0.51625 1.3803808,1.3803808 0 0 0 0.44726,0.350631 1.3472516,1.3472516 0 0 0 0.58804,0.10767 1.9573798,1.9573798 0 0 0 0.44448,-0.047 2.8684313,2.8684313 0 0 0 0.4362,-0.129741 l 0.0442,0.45275 a 2.371494,2.371494 0 0 1 -0.4859,0.110442 4.9831744,4.9831744 0 0 1 -0.51626,0.0276 1.8883608,1.8883608 0 0 1 -0.82823,-0.165651 1.678543,1.678543 0 0 1 -0.58252,-0.447238 1.9104469,1.9104469 0 0 1 -0.34786,-0.654312 2.5730297,2.5730297 0 0 1 -0.11319,-0.775769 2.3852979,2.3852979 0 0 1 0.13528,-0.82823 1.9021647,1.9021647 0 0 1 0.39203,-0.64601 1.7199544,1.7199544 0 0 1 0.60737,-0.422399 2.0788534,2.0788534 0 0 1 0.79233,-0.149082 2.5564651,2.5564651 0 0 1 0.59081,0.058 c 0.16012,0.0387 0.27608,0.0718 0.34786,0.0966 z"
         class="cls-1"
         inkscape:connector-curvature="0" />
      <path
         style="fill:#ffffff;stroke-width:0.27607614"
         id="path94"
         d="m 473.50605,56.755376 a 2.534379,2.534379 0 0 1 -0.55215,0.160121 3.3294783,3.3294783 0 0 1 -0.57424,0.0552 1.9987913,1.9987913 0 0 1 -0.82823,-0.154591 1.3803808,1.3803808 0 0 1 -0.55215,-0.427918 1.7641266,1.7641266 0 0 1 -0.30644,-0.648772 3.3129138,3.3129138 0 0 1 -0.0967,-0.81167 2.8076946,2.8076946 0 0 1 0.11871,-0.828228 1.9877482,1.9877482 0 0 1 0.33407,-0.64603 1.5349833,1.5349833 0 0 1 0.51902,-0.419611 1.6040024,1.6040024 0 0 1 1.38037,0 1.3997061,1.3997061 0 0 1 0.48313,0.422389 1.7889735,1.7889735 0 0 1 0.27609,0.615651 2.9374502,2.9374502 0 0 1 0.0884,0.739881 v 0.2457 h -2.66966 a 1.9987913,1.9987913 0 0 0 0.0856,0.58529 1.3803808,1.3803808 0 0 0 0.2457,0.469328 1.1374337,1.1374337 0 0 0 0.40032,0.317482 1.2257781,1.2257781 0 0 0 0.55216,0.118708 1.5929593,1.5929593 0 0 0 0.27607,-0.0276 c 0.1049,-0.01659 0.20429,-0.0387 0.30645,-0.0634 a 2.1009394,2.1009394 0 0 0 0.27607,-0.0911 1.3362085,1.3362085 0 0 0 0.21809,-0.107669 z m -0.23743,-2.10371 a 2.302475,2.302475 0 0 0 -0.0525,-0.496929 1.3803808,1.3803808 0 0 0 -0.17393,-0.436211 0.8806829,0.8806829 0 0 0 -0.30921,-0.303678 0.86135758,0.86135758 0 0 0 -0.45828,-0.115941 0.94418047,0.94418047 0 0 0 -0.47762,0.12146 1.2671896,1.2671896 0 0 0 -0.3589,0.31473 1.3997061,1.3997061 0 0 0 -0.22914,0.4362 1.4908111,1.4908111 0 0 0 -0.0828,0.480369 z"
         class="cls-1"
         inkscape:connector-curvature="0" />
    </g>
    <path
       style="fill:#ffffff;fill-opacity:1;stroke-width:0.05307211"
       d="m 493.57604,45.588399 c -0.2296,-0.107918 -0.5336,-0.420224 -0.61343,-0.630193 -0.0279,-0.07334 -0.0495,-1.137412 -0.0495,-2.435421 v -2.305182 h -3.78502 c -4.24135,0 -4.16158,0.0064 -4.5604,-0.36562 -0.18083,-0.168684 -0.21671,-0.238432 -0.23832,-0.463281 -0.0148,-0.153646 0.009,-0.397118 0.0575,-0.580321 0.0456,-0.173592 1.60078,-3.491987 3.45595,-7.374212 2.77284,-5.802561 3.40577,-7.087716 3.55694,-7.222272 0.73431,-0.653589 1.89953,-0.09633 1.81939,0.870102 -0.0216,0.26007 -0.38416,1.013504 -3.16376,6.574115 -1.72667,3.45421 -3.1394,6.292298 -3.1394,6.306862 0,0.01457 1.34339,0.02031 2.98531,0.01277 l 2.98531,-0.01371 0.0265,-1.251271 c 0.026,-1.226177 0.0292,-1.255197 0.15922,-1.447076 0.37966,-0.560298 1.14915,-0.682973 1.64849,-0.262809 0.32261,0.271457 0.3392,0.348687 0.36825,1.713961 l 0.0265,1.247195 1.38393,0.02654 1.38393,0.02654 0.21498,0.142384 c 0.27401,0.18148 0.49386,0.602562 0.49222,0.942746 -0.002,0.469712 -0.34906,0.941372 -0.7802,1.061099 -0.1138,0.0316 -0.74471,0.0558 -1.45936,0.05597 l -1.25888,3.18e-4 -0.0148,2.383735 -0.0148,2.383734 -0.15995,0.227522 c -0.20882,0.297032 -0.43431,0.423072 -0.80891,0.452142 -0.22611,0.01755 -0.35983,-0.0022 -0.51761,-0.07634 z"
       id="path4628"
       inkscape:connector-curvature="0" />
  </g>
  <style
     id="style1657"
     type="text/css">
	.st0{fill:#00AEEF;stroke:#000000;stroke-miterlimit:10;}
	.st1{fill:#FFFFFF;stroke:#000000;stroke-miterlimit:10;}
	.st2{stroke:#000000;stroke-miterlimit:10;}
	.st3{fill:none;stroke:#000000;stroke-miterlimit:10;}
	.st4{opacity:0.5;fill:#FFFFFF;}
	.st5{fill:#871D57;}
	.st6{fill:#903493;}
	.st7{fill:#C03178;}
	.st8{fill:none;stroke:#0E121B;stroke-miterlimit:10;}
</style>
</svg>
