<?xml version="1.0" encoding="UTF-8" standalone="no"?>
<!-- Created with Inkscape (http://www.inkscape.org/) -->

<svg
   xmlns:dc="http://purl.org/dc/elements/1.1/"
   xmlns:cc="http://creativecommons.org/ns#"
   xmlns:rdf="http://www.w3.org/1999/02/22-rdf-syntax-ns#"
   xmlns:svg="http://www.w3.org/2000/svg"
   xmlns="http://www.w3.org/2000/svg"
   xmlns:sodipodi="http://sodipodi.sourceforge.net/DTD/sodipodi-0.dtd"
   xmlns:inkscape="http://www.inkscape.org/namespaces/inkscape"
   width="1920"
   height="1080"
   viewBox="0 0 508 285.75001"
   version="1.1"
   id="svg8"
   inkscape:version="0.92.2 5c3e80d, 2017-08-06"
   sodipodi:docname="oSC19_bg.svg"
   inkscape:export-filename="/home/tbro/opensuse-video/oSC19_bg.png"
   inkscape:export-xdpi="96"
   inkscape:export-ydpi="96">
  <defs
     id="defs2" />
  <sodipodi:namedview
     id="base"
     pagecolor="#ffffff"
     bordercolor="#666666"
     borderopacity="1.0"
     inkscape:pageopacity="0.0"
     inkscape:pageshadow="2"
     inkscape:zoom="0.35"
     inkscape:cx="839.47675"
     inkscape:cy="392.44217"
     inkscape:document-units="px"
     inkscape:current-layer="layer1"
     showgrid="false"
     inkscape:window-width="1596"
     inkscape:window-height="852"
     inkscape:window-x="0"
     inkscape:window-y="26"
     inkscape:window-maximized="0"
     units="px" />
  <metadata
     id="metadata5">
    <rdf:RDF>
      <cc:Work
         rdf:about="">
        <dc:format>image/svg+xml</dc:format>
        <dc:type
           rdf:resource="http://purl.org/dc/dcmitype/StillImage" />
        <dc:title></dc:title>
      </cc:Work>
    </rdf:RDF>
  </metadata>
  <g
     inkscape:label="Ebene 1"
     inkscape:groupmode="layer"
     id="layer1"
     transform="translate(0,-11.249941)">
    <rect
       style="fill:#173f4f;fill-opacity:0.90196079;stroke:#000000;stroke-width:0.26480812;stroke-miterlimit:4;stroke-dasharray:none;stroke-opacity:1"
       id="rect1197"
       height="285.4852"
       x="0.13240406"
       y="11.382338"
       width="507.7352" />
    <g
       id="g2465"
       transform="matrix(0.10648317,0,0,0.10648317,19.771769,58.337864)">
      <g
         id="Layer_1">
        <g
           id="Dark_Green_Hex">
          <polygon
             id="polygon1946"
             points="141.053,250.623 247.875,250.623 301.286,343.134 247.875,435.644 141.053,435.644 87.642,343.134 "
             style="fill:#6ca743" />
        </g>
        <g
           id="Blue_Hex">
          <polygon
             id="polygon1949"
             points="142.053,52.623 248.875,52.623 302.286,145.134 248.875,237.645 142.053,237.645 88.642,145.134 "
             style="fill:#35b8aa" />
        </g>
        <g
           id="Green_Hex">
          <polyline
             id="polyline1952"
             points="288.152,194.288 311.053,154.623 417.875,154.623 471.287,247.134 417.875,339.645     311.053,339.645 257.642,247.134 288.152,194.288   "
             style="fill:#72ba44" />
        </g>
        <path
           id="path1955"
           d="m 385.976,219.585 c -4.533,-0.164 -8.825,1.437 -12.108,4.516 -3.283,3.079 -5.219,7.249 -5.357,11.766 -0.312,9.332 6.992,17.183 16.304,17.526 4.529,0.135 8.843,-1.465 12.145,-4.544 3.298,-3.092 5.194,-7.264 5.339,-11.765 0.309,-9.328 -6.991,-17.168 -16.323,-17.499 z m 2.761,18.487 c -4.147,0 -7.493,-2.244 -7.493,-4.994 0,-2.776 3.346,-5.009 7.493,-5.009 4.147,0 7.507,2.233 7.507,5.009 -0.002,2.75 -3.359,4.994 -7.507,4.994 z"
           inkscape:connector-curvature="0"
           style="fill:#ffffff" />
        <path
           id="path1957"
           d="m 428.505,257.65 c -0.932,-5.856 -9.659,-34.245 -16.257,-41.072 -1.819,-1.86 -3.276,-3.693 -6.223,-5.419 -23.884,-13.914 -80.537,-22.312 -83.191,-22.698 l -0.45,0.126 -0.171,0.41 c 0,0 -0.219,11.739 -0.253,13.051 -3.562,-1.197 -12.896,-3.799 -34.345,-9.244 -15.51,27.056 -15.51,27.221 -31.349,54.113 0,0 0.165,0.165 11.88,21.12 6.599,11.713 13.196,21.779 16.829,28.048 5.762,10.7 8.084,14.848 14.188,24.749 -1.32,-1.816 -0.33,-1.65 0.441,-8.404 1.76,-15.424 15.662,-14.816 33.601,-12.793 5.854,0.687 12.518,1.449 19.418,1.604 19.272,0.122 40.027,-3.438 52.818,-9.034 8.275,-3.595 13.561,-5.99 16.869,-9 1.189,-0.985 1.805,-2.586 2.447,-4.309 l 0.453,-1.137 c 0.535,-1.396 1.322,-4.338 1.666,-5.953 0.139,-0.709 0.221,-1.461 -0.287,-1.858 l -1.77,0.327 c -5.616,3.381 -19.66,9.783 -32.787,10.058 -16.301,0.329 -49.115,-16.392 -52.537,-18.169 l -0.331,-0.382 c -0.804,-1.971 -5.731,-13.614 -6.784,-16.075 23.629,15.568 43.225,24.173 58.228,25.5 16.702,1.49 29.721,-7.625 35.279,-11.522 h -0.002 c 1.104,-0.727 1.91,-1.329 2.25,-1.463 z m -18.939,-20.113 c -0.254,6.472 -2.961,12.477 -7.683,16.868 -4.733,4.447 -10.896,6.73 -17.401,6.512 -13.34,-0.49 -23.82,-11.738 -23.375,-25.089 0.24,-6.472 2.949,-12.479 7.682,-16.883 4.734,-4.422 10.91,-6.704 17.389,-6.499 13.355,0.477 23.848,11.75 23.388,25.091 z"
           inkscape:connector-curvature="0"
           style="fill:#ffffff" />
        <g
           id="_x31_9">
          <text
             id="text1959"
             font-size="138.684"
             transform="matrix(0.9662,0,0,1,112.665,395.9893)"
             style="font-size:138.68400574px;font-family:OpenSans-Bold;fill:#ffffff">19</text>
        </g>
        <g
           display="none"
           id="openSUSE"
           style="display:none">
          <path
             id="path1962"
             d="m 500.144,344.212 c -11.701,0 -18.139,9.896 -18.139,16.734 v 8.778 c 0,10.072 8.23,16.314 15.859,16.314 h 26.791 c 3.375,0 4.082,2.207 4.082,4.072 v 5.666 c 0,0.604 -0.121,6.045 -4.082,6.045 h -36.539 c -3.631,0 -6.254,2.524 -6.254,5.979 v 1.566 c 0,3.447 2.623,5.957 6.254,5.957 h 38.521 c 10.072,0 16.568,-7.008 16.568,-17.861 v -9.475 c 0,-10.191 -7.32,-14.748 -14.592,-14.748 H 502.25 c -3.967,0 -5.766,-2.978 -5.766,-5.08 v -5.23 c 0,-3.295 2.201,-5.202 6.053,-5.202 h 29.18 c 3.576,0 6.271,-2.57 6.271,-5.97 v -1.563 c 0,-3.41 -2.736,-5.984 -6.395,-5.984 z"
             display="inline"
             inkscape:connector-curvature="0"
             style="display:inline;fill:#72ba44" />
          <path
             id="path1964"
             d="m 609.691,344.212 c -3.463,0 -6.246,2.812 -6.246,6.271 v 44.86 c 0,3.594 -2.936,6.48 -6.482,6.48 h -20.365 c -3.561,0 -6.479,-2.887 -6.479,-6.48 v -44.86 c 0,-3.459 -2.811,-6.271 -6.268,-6.271 h -1.971 c -3.508,0 -6.268,2.769 -6.268,6.271 v 46.561 c 0,10.838 8.523,18.701 20.275,18.701 h 21.777 c 11.736,0 20.258,-7.861 20.258,-18.701 v -46.561 c 0,-3.505 -2.746,-6.271 -6.252,-6.271 z"
             display="inline"
             inkscape:connector-curvature="0"
             style="display:inline;fill:#72ba44" />
          <path
             id="path1966"
             d="m 648.677,344.212 c -11.695,0 -18.148,9.896 -18.148,16.734 v 8.778 c 0,10.072 8.246,16.314 15.879,16.314 h 26.781 c 3.381,0 4.092,2.207 4.092,4.072 v 5.666 c 0,0.604 -0.123,6.045 -4.092,6.045 h -36.555 c -3.611,0 -6.254,2.524 -6.254,5.979 v 1.566 c 0,3.447 2.641,5.957 6.254,5.957 h 38.539 c 10.072,0 16.6,-7.008 16.6,-17.861 v -9.475 c 0,-10.191 -7.344,-14.748 -14.615,-14.748 h -26.359 c -3.979,0 -5.77,-2.978 -5.77,-5.08 v -5.23 c 0,-3.295 2.201,-5.202 6.049,-5.202 h 29.197 c 3.568,0 6.252,-2.57 6.252,-5.97 v -1.563 c 0,-3.41 -2.734,-5.984 -6.406,-5.984 z"
             display="inline"
             inkscape:connector-curvature="0"
             style="display:inline;fill:#72ba44" />
          <path
             id="path1968"
             d="m 710.265,344.212 c -3.469,0 -6.096,2.574 -6.096,5.986 v 59.174 c 0,3.395 2.564,5.953 5.961,5.953 h 47.152 c 3.633,0 6.258,-2.51 6.258,-5.953 v -1.566 c 0,-3.457 -2.625,-5.981 -6.258,-5.981 h -38.619 v -15.066 h 28.303 c 3.621,0 6.252,-2.541 6.252,-5.981 v -1.564 c 0,-3.459 -2.631,-5.971 -6.252,-5.971 h -28.303 v -15.515 h 36.658 c 3.617,0 6.256,-2.493 6.256,-5.971 v -1.562 c 0,-3.461 -2.639,-5.984 -6.256,-5.984 H 710.26 v 0.004 h 0.004 v -0.003 z"
             display="inline"
             inkscape:connector-curvature="0"
             style="display:inline;fill:#72ba44" />
          <path
             id="path1970"
             d="m 309.431,372.359 c -5.909,0 -10.718,4.598 -10.718,10.268 v 22.312 c 0,5.76 4.653,10.448 10.36,10.448 h 14.431 c 5.707,0 10.36,-4.688 10.36,-10.448 v -22.312 c 0,-5.666 -4.812,-10.268 -10.719,-10.268 z m -3.121,31.693 v -20.375 c 0,-2.389 1.962,-4.34 4.36,-4.34 h 11.245 c 2.346,0 4.346,1.996 4.346,4.34 v 20.375 c 0,2.402 -1.948,4.357 -4.346,4.357 h -11.329 c -2.404,0.001 -4.276,-1.911 -4.276,-4.357"
             display="inline"
             inkscape:connector-curvature="0"
             style="display:inline;fill:#72ba44" />
          <path
             id="path1972"
             d="m 366.534,372.101 c -4.161,0 -7.297,1.486 -9.815,2.703 -1.536,0.736 -2.863,1.373 -3.894,1.373 -0.466,0 -0.866,-0.211 -1.077,-0.559 l -0.96,-1.834 c -0.239,-0.482 -1.201,-1.428 -2.391,-1.428 h -1.427 c -1.371,0 -2.468,1.229 -2.468,2.733 v 56.59 c 0,1.775 1.4,3.172 3.173,3.172 h 1.233 c 1.759,0 3.189,-1.414 3.189,-3.172 v -18.774 c 0,-0.56 0.359,-1.158 0.728,-1.158 1.031,0 2.358,0.604 3.894,1.307 2.52,1.158 5.655,2.584 9.815,2.584 h 1.333 c 7.367,0 11.951,-4.211 11.951,-10.973 v -21.602 c 0,-6.662 -4.681,-10.964 -11.951,-10.964 z m -14.436,31.516 v -19.488 c 0,-2.691 2.104,-4.793 4.793,-4.793 h 10.539 c 2.694,0 4.794,2.104 4.794,4.793 v 19.488 c 0,2.645 -2.156,4.791 -4.794,4.791 h -10.539 c -2.639,0 -4.793,-2.147 -4.793,-4.791 z"
             display="inline"
             inkscape:connector-curvature="0"
             style="display:inline;fill:#72ba44" />
          <path
             id="path1974"
             d="m 401.167,372.357 c -5.909,0 -10.705,4.6 -10.705,10.268 v 22.145 c 0,5.744 4.661,10.615 10.162,10.615 h 14.891 c 1.841,0 3.173,-1.272 3.173,-3.01 V 411.4 c 0,-1.744 -1.332,-2.994 -3.173,-2.994 h -12.231 c -3.43,0 -5.235,-1.685 -5.235,-4.89 v -6.479 h 22.066 c 3.549,0 5.647,-2.166 5.647,-5.832 v -8.586 c 0,-5.67 -4.803,-10.271 -10.688,-10.271 H 401.17 Z m -3.119,11.246 c 0,-2.391 1.88,-4.27 4.274,-4.27 h 11.593 c 2.389,0 4.252,1.879 4.252,4.27 v 6.914 h -20.121 c 0.002,-0.902 0.002,-6.914 0.002,-6.914 z"
             display="inline"
             inkscape:connector-curvature="0"
             style="display:inline;fill:#72ba44" />
          <path
             id="path1976"
             d="m 456.417,372.101 c -4.148,0 -7.277,1.486 -9.803,2.689 -1.572,0.74 -2.916,1.387 -4.016,1.387 -0.479,0 -0.678,-0.062 -1.051,-0.711 l -0.873,-1.594 c -0.5,-1.008 -1.352,-1.514 -2.502,-1.514 h -1.227 c -1.482,0 -2.562,1.153 -2.562,2.731 v 37.119 c 0,1.758 1.393,3.172 3.18,3.172 h 1.229 c 1.758,0 3.193,-1.43 3.193,-3.172 v -28.082 c 0,-2.631 2.146,-4.795 4.779,-4.795 h 10.543 c 2.643,0 4.789,2.164 4.789,4.795 v 28.082 c 0,1.758 1.398,3.172 3.17,3.172 h 1.24 c 1.76,0 3.189,-1.43 3.189,-3.172 v -29.15 c 0,-6.659 -4.684,-10.961 -11.957,-10.961 h -1.324 v 0.003 h 0.003 z"
             display="inline"
             inkscape:connector-curvature="0"
             style="display:inline;fill:#72ba44" />
          <path
             id="path1978"
             d="m 774.048,400.994 c 3.211,0 5.771,2.611 5.771,5.879 0,3.313 -2.562,5.896 -5.801,5.896 -3.211,0 -5.816,-2.582 -5.816,-5.896 0,-3.266 2.605,-5.879 5.816,-5.879 z m -0.027,0.912 c -2.584,0 -4.697,2.223 -4.697,4.963 0,2.797 2.113,4.988 4.725,4.988 2.611,0.026 4.701,-2.191 4.701,-4.964 0,-2.768 -2.09,-4.987 -4.701,-4.987 z m -1.096,8.385 h -1.045 v -6.553 c 0.551,-0.08 1.072,-0.158 1.857,-0.158 0.988,0 1.643,0.205 2.029,0.496 0.396,0.283 0.605,0.727 0.605,1.356 0,0.859 -0.576,1.379 -1.277,1.593 v 0.055 c 0.574,0.104 0.963,0.625 1.1,1.592 0.15,1.021 0.309,1.412 0.416,1.619 h -1.1 c -0.16,-0.207 -0.312,-0.809 -0.443,-1.67 -0.156,-0.834 -0.572,-1.148 -1.406,-1.148 h -0.732 v 2.818 z m 0,-3.633 h 0.758 c 0.863,0 1.594,-0.312 1.594,-1.121 0,-0.576 -0.42,-1.152 -1.594,-1.152 -0.342,0 -0.574,0.025 -0.758,0.06 z"
             display="inline"
             inkscape:connector-curvature="0"
             style="display:inline;fill:#72ba44" />
          <rect
             id="rect1980"
             height="425.245"
             width="584"
             display="inline"
             y="58.613998"
             x="242.66701"
             style="display:inline;fill:none" />
        </g>
        <g
           display="none"
           id="Conference"
           style="display:none">
          <text
             id="text1983"
             font-size="231.8843"
             display="inline"
             transform="matrix(0.4923,0,0,1,28.0625,577.3164)"
             style="font-size:231.8842926px;font-family:OpenSans;display:inline;fill:#72ba44">Conference</text>
        </g>
        <g
           display="none"
           id="Prague"
           style="display:none">
          <text
             id="text1986"
             font-size="99.8886"
             display="inline"
             transform="matrix(0.4923,0,0,1,33.916,698.6074)"
             style="font-size:99.88860321px;font-family:OpenSans;display:inline;fill:#72ba44">Nuremberg, Germany</text>
        </g>
        <g
           id="Bridge">
          <path
             id="path1989"
             d="M 279.387,144.166"
             inkscape:connector-curvature="0"
             style="fill:#ffffff" />
          <line
             id="line1991"
             y2="197.30499"
             x2="591.46002"
             y1="196.452"
             x1="591.35498"
             style="fill:none" />
        </g>
      </g>
      <g
         id="Layer_2">
        <path
           id="path1995"
           d="m 178.541,104.739 c -0.051,1.837 -0.718,3.765 -0.803,4 -0.097,0.269 -0.176,0.963 -0.176,1.542 0,1.026 -0.033,1.055 -1.165,1.055 -1.121,0 -1.157,0.03 -0.974,0.849 0.599,2.689 1.62,4.163 3.513,5.071 l 1.23,0.59 c 0,0 -0.775,57.858 -0.996,65.929 l -0.204,9.845 h 6.087 c 0,0 -0.988,-75.803 -0.093,-76.118 1.428,-0.502 2.859,-2.126 3.419,-3.877 0.684,-2.141 0.639,-2.289 -0.688,-2.289 h -1.158 c 0,0 -0.082,-2.97 -0.177,-5.575 -0.028,-0.749 -0.46,-1.406 -0.489,-2.017 -0.011,-0.254 0.618,-0.466 0.607,-0.678 -0.027,-0.49 -0.091,-0.879 -0.113,-1.029 -0.086,-0.542 -0.444,-1.272 -0.551,-1.559 -0.158,-0.425 -0.521,-1.77 -1.317,-3.26 l -0.866,-1.62 -0.215,-0.925 c 0,0 -0.931,-24.534 -0.931,-26.121 0,-1.987 -1.682,25.975 -1.708,26.042 -0.016,0.043 -0.317,1.107 -0.374,1.235 -0.378,0.85 -0.841,1.733 -1.177,2.582 -0.598,1.511 -1.152,2.899 -1.42,3.803 -0.12,0.409 -0.103,0.731 -0.144,0.9 -0.127,0.55 0.92,0.329 0.883,1.625 z m 5.39,-1.735 m 1.835,-1.524 c 0.103,0.31 0.145,0.586 0.189,0.823 0.043,0.222 0.066,0.561 0.066,0.726 0,0.094 -0.308,-0.024 -0.607,-0.024 -0.376,0 -0.598,-0.295 -0.724,-0.964 -0.281,-1.497 -0.216,-2.122 0.219,-2.122 0.198,-10e-4 0.592,0.767 0.857,1.561 z m -2.258,-4.956 c 0.179,0 1.288,1.923 1.29,2.237 0.002,0.463 -0.601,0.217 -0.756,-0.309 -0.087,-0.297 -0.275,-0.852 -0.419,-1.234 -0.142,-0.381 -0.194,-0.694 -0.115,-0.694 z m -3.617,1.204 c 0.363,-0.755 0.604,-1.119 0.696,-1.097 0.093,0.022 0.038,0.432 -0.188,1.22 -0.181,0.628 -0.504,1.142 -0.719,1.142 -0.295,0 -0.242,-0.314 0.211,-1.265 z m -1.575,5.114 c 0.036,-0.207 0.151,-0.986 0.247,-1.382 0.235,-0.991 0.511,-1.422 0.869,-1.495 1.435,0.002 0.042,-0.03 0.107,-0.022 0.192,0.023 0.35,0.197 0.24,0.639 0.441,0.178 0.149,-2.11 0.146,-1.642 -0.003,0.546 -0.147,2.907 -0.549,3.81 -0.104,0.236 -0.364,0.253 -0.481,0.254 -0.346,0.002 -0.672,0.386 -0.579,-0.162 z"
           inkscape:connector-curvature="0"
           style="fill:#26a2dc" />
        <path
           id="path1997"
           d="m 178.789,103.676 c -1.14,1.582 -1.862,3.917 -1.862,6.526 0,4.763 2.407,8.625 5.378,8.625 2.971,0 5.379,-3.862 5.379,-8.625 0,-2.608 -0.722,-4.944 -1.863,-6.526 z"
           inkscape:connector-curvature="0"
           style="fill:#26a2dc" />
        <path
           id="path1999"
           d="m 189.553,110.441 c 0,4.45 -3.294,8.058 -7.358,8.058 -4.064,0 -7.359,-3.607 -7.359,-8.058 -0.001,-0.246 14.717,-0.387 14.717,0 z"
           inkscape:connector-curvature="0"
           style="fill:#26a2dc" />
        <ellipse
           id="ellipse2001"
           ry="0.99400002"
           rx="8.1929998"
           cy="107.98"
           cx="182.552"
           style="fill:#26a2dc" />
        <ellipse
           id="ellipse2003"
           ry="0.99400002"
           rx="6.316"
           cy="103.744"
           cx="182.194"
           style="fill:#26a2dc" />
        <ellipse
           id="ellipse2005"
           ry="0.479"
           rx="4.8990002"
           cy="98.940002"
           cx="181.826"
           style="fill:#26a2dc" />
        <polygon
           id="polygon2007"
           points="257.176,182.182 257.327,223.006 256.032,225.249 217.92,225.249 217.92,181.788 237.146,158.111 "
           style="fill:#26a2dc" />
        <polygon
           id="polygon2009"
           points="233.523,177.971 240.905,177.971 240.905,149.847 236.976,146.739 233.523,150.11 "
           style="fill:#173f4f" />
        <polygon
           id="polygon2011"
           points="240.905,150.412 236.976,150.412 233.523,150.412 233.523,153.782 233.523,181.643 240.905,181.643 240.905,153.52 "
           style="fill:#26a2dc" />
        <polygon
           id="polygon2013"
           points="217.636,231.471 218.431,231.471 218.431,181.007 218.009,174.716 217.636,180.841 "
           style="fill:#26a2dc" />
        <polygon
           id="polygon2015"
           points="220.75,203.789 221.543,203.789 221.543,176.018 221.121,172.556 220.75,175.927 "
           style="fill:#26a2dc" />
        <ellipse
           id="ellipse2017"
           ry="0.41100001"
           rx="0.39700001"
           cy="172.66701"
           cx="221.146"
           style="fill:#26a2dc" />
        <polygon
           id="polygon2019"
           points="223.322,202.15 224.116,202.15 224.116,174.379 223.693,170.918 223.322,174.289 "
           style="fill:#26a2dc" />
        <ellipse
           id="ellipse2021"
           ry="0.41"
           rx="0.39700001"
           cy="171.02901"
           cx="223.71899"
           style="fill:#26a2dc" />
        <polygon
           id="polygon2023"
           points="225.863,199.455 226.656,199.455 226.656,171.683 226.234,168.223 225.863,171.593 "
           style="fill:#26a2dc" />
        <ellipse
           id="ellipse2025"
           ry="0.41100001"
           rx="0.396"
           cy="168.33299"
           cx="226.25999"
           style="fill:#26a2dc" />
        <polygon
           id="polygon2027"
           points="228.355,194.938 229.149,194.938 229.149,167.167 228.726,163.706 228.355,167.077 "
           style="fill:#26a2dc" />
        <ellipse
           id="ellipse2029"
           ry="0.41100001"
           rx="0.39700001"
           cy="163.817"
           cx="228.752"
           style="fill:#26a2dc" />
        <polygon
           id="polygon2031"
           points="230.753,193.24 231.547,193.24 231.547,165.47 231.125,162.008 230.753,165.379 "
           style="fill:#26a2dc" />
        <ellipse
           id="ellipse2033"
           ry="0.412"
           rx="0.39700001"
           cy="162.119"
           cx="231.14999"
           style="fill:#26a2dc" />
        <polygon
           id="polygon2035"
           points="242.473,193.235 243.267,193.235 243.267,165.466 242.844,162.004 242.473,165.375 "
           style="fill:#26a2dc" />
        <ellipse
           id="ellipse2037"
           ry="0.41"
           rx="0.39700001"
           cy="162.116"
           cx="242.87"
           style="fill:#26a2dc" />
        <polygon
           id="polygon2039"
           points="245.141,195.349 245.936,195.349 245.936,167.579 245.512,164.117 245.141,167.487 "
           style="fill:#26a2dc" />
        <ellipse
           id="ellipse2041"
           ry="0.41100001"
           rx="0.39700001"
           cy="164.228"
           cx="245.53799"
           style="fill:#26a2dc" />
        <polygon
           id="polygon2043"
           points="248.38,199.455 249.175,199.455 249.175,171.683 248.752,168.223 248.38,171.593 "
           style="fill:#26a2dc" />
        <ellipse
           id="ellipse2045"
           ry="0.41100001"
           rx="0.39700001"
           cy="168.33299"
           cx="248.778"
           style="fill:#26a2dc" />
        <polygon
           id="polygon2047"
           points="251.287,202.167 252.081,202.167 252.081,174.396 251.658,170.935 251.287,174.306 "
           style="fill:#26a2dc" />
        <ellipse
           id="ellipse2049"
           ry="0.41100001"
           rx="0.39700001"
           cy="171.04601"
           cx="251.68401"
           style="fill:#26a2dc" />
        <polygon
           id="polygon2051"
           points="253.907,204.199 254.701,204.199 254.701,176.429 254.279,172.967 253.907,176.339 "
           style="fill:#26a2dc" />
        <ellipse
           id="ellipse2053"
           ry="0.41100001"
           rx="0.39700001"
           cy="173.078"
           cx="254.304"
           style="fill:#26a2dc" />
        <polygon
           id="polygon2055"
           points="256.533,180.496 256.533,224.381 257.327,223.006 257.327,180.661 256.905,174.372 "
           style="fill:#26a2dc" />
        <rect
           id="rect2057"
           height="37.859001"
           width="4.7160001"
           y="188.173"
           x="219.241"
           style="fill:#73ab43" />
        <ellipse
           id="ellipse2059"
           ry="4.5890002"
           rx="2.358"
           cy="187.701"
           cx="221.599"
           style="fill:#73ab43" />
        <rect
           id="rect2061"
           height="37.858002"
           width="4.7160001"
           y="188.129"
           x="250.69099"
           style="fill:#73ab43" />
        <ellipse
           id="ellipse2063"
           ry="4.5900002"
           rx="2.358"
           cy="187.657"
           cx="253.049"
           style="fill:#73ab43" />
        <rect
           id="rect2065"
           height="43.341999"
           width="11.56"
           y="183.412"
           x="231.582"
           style="fill:#73ab43" />
        <ellipse
           id="ellipse2067"
           ry="7.5110002"
           rx="5.7800002"
           cy="183.317"
           cx="237.36099"
           style="fill:#73ab43" />
        <path
           id="path2069"
           d="m 247.947,226.426 c 0.052,-0.679 0.084,-1.368 0.084,-2.07 0,-9.385 -4.763,-16.995 -10.638,-16.995 -5.876,0 -10.638,7.61 -10.638,16.995 0,0.702 0.031,1.392 0.083,2.07 z"
           inkscape:connector-curvature="0"
           style="fill:#173f4f" />
        <ellipse
           id="ellipse2071"
           ry="2.54"
           rx="2.454"
           cy="169.658"
           cx="237.37801"
           style="fill:#ffffff" />
        <rect
           id="rect2073"
           height="33.452"
           width="56.762001"
           y="191.46201"
           x="160.23599"
           style="fill:#72b944" />
        <polygon
           id="polygon2075"
           points="160.236,191.856 177.026,191.856 177.026,179.421 168.915,165.333 160.236,180.079 "
           style="fill:#72b944" />
        <polygon
           id="polygon2077"
           points="135.462,226.228 158.499,226.226 158.499,177.837 133.269,177.837 133.269,222.432 "
           style="fill:#26a2dc" />
        <polygon
           id="polygon2079"
           points="142.053,237.645 135.462,226.228 134.668,224.854 256.259,224.854 256.032,225.249 248.875,237.645 "
           style="fill:#173f4f" />
        <polygon
           id="polygon2081"
           points="158.499,176.47 160.945,174.425 160.945,164.482 130.701,164.482 130.522,174.472 132.678,176.47 133.269,180.271 158.499,179.022 "
           style="fill:#26a2dc" />
        <polygon
           id="polygon2083"
           points="132.966,159.163 130.522,164.53 130.522,174.472 160.766,174.472 160.945,164.482 158.375,159.163 156.307,163.774 145.921,149.653 135.494,163.839 "
           style="fill:#26a2dc" />
        <path
           id="path2085"
           d="m 186.754,241.835 c 0.165,0.161 0.333,0.317 0.501,0.473 0.52,-0.056 1.042,-0.105 1.567,-0.149 -0.692,-0.089 -1.381,-0.195 -2.068,-0.324 z"
           inkscape:connector-curvature="0"
           style="fill:#ffffff" />
        <path
           id="path2087"
           d="m 215.401,224.914 c -2.029,-8.079 -9.733,-14.094 -18.933,-14.094 -9.2,0 -16.898,6.016 -18.927,14.094 z"
           inkscape:connector-curvature="0"
           style="fill:#173f4f" />
        <rect
           id="rect2089"
           height="4.1209998"
           width="27.855"
           y="185.983"
           x="189.14301"
           style="fill:#173f4f" />
        <rect
           id="rect2091"
           height="3.395"
           width="27.855"
           y="183.11"
           x="189.14301"
           style="fill:#173f4f" />
        <rect
           id="rect2093"
           height="3.3940001"
           width="27.855"
           y="136.276"
           x="189.14301"
           style="fill:#173f4f" />
        <rect
           id="rect2095"
           height="3.395"
           width="27.855"
           y="140.431"
           x="189.14301"
           style="fill:#173f4f" />
        <rect
           id="rect2097"
           height="3.3940001"
           width="27.855"
           y="144.53799"
           x="189.14301"
           style="fill:#173f4f" />
        <rect
           id="rect2099"
           height="3.3940001"
           width="27.855"
           y="148.64101"
           x="189.14301"
           style="fill:#173f4f" />
        <rect
           id="rect2101"
           height="3.3940001"
           width="27.855"
           y="151.86099"
           x="189.14301"
           style="fill:#173f4f" />
        <rect
           id="rect2103"
           height="3.3929999"
           width="27.855"
           y="155.83099"
           x="189.14301"
           style="fill:#173f4f" />
        <rect
           id="rect2105"
           height="3.3940001"
           width="27.855"
           y="160.01199"
           x="189.14301"
           style="fill:#173f4f" />
        <rect
           id="rect2107"
           height="3.3929999"
           width="27.855"
           y="163.94"
           x="189.14301"
           style="fill:#173f4f" />
        <rect
           id="rect2109"
           height="3.3940001"
           width="27.855"
           y="167.923"
           x="189.14301"
           style="fill:#173f4f" />
        <rect
           id="rect2111"
           height="3.395"
           width="27.855"
           y="171.13901"
           x="189.14301"
           style="fill:#173f4f" />
        <rect
           id="rect2113"
           height="3.3959999"
           width="27.855"
           y="175.142"
           x="189.14301"
           style="fill:#173f4f" />
        <rect
           id="rect2115"
           height="3.3940001"
           width="27.855"
           y="179.27299"
           x="189.14301"
           style="fill:#173f4f" />
        <rect
           id="rect2117"
           height="5.5100002"
           width="20.726"
           y="131.439"
           x="196.272"
           style="fill:#173f4f" />
        <path
           id="path2119"
           d="m 132.693,169.79 c 0,0.358 -0.281,0.649 -0.627,0.649 v 0 c -0.347,0 -0.627,-0.291 -0.627,-0.649 v -1.334 c 0,-0.359 0.28,-0.65 0.627,-0.65 v 0 c 0.347,0 0.627,0.291 0.627,0.65 z"
           inkscape:connector-curvature="0"
           style="fill:#ffffff" />
        <path
           id="path2121"
           d="m 135.473,169.79 c 0,0.358 -0.281,0.649 -0.628,0.649 v 0 c -0.347,0 -0.628,-0.291 -0.628,-0.649 v -1.334 c 0,-0.359 0.282,-0.65 0.628,-0.65 v 0 c 0.347,0 0.628,0.291 0.628,0.65 z"
           inkscape:connector-curvature="0"
           style="fill:#ffffff" />
        <path
           id="path2123"
           d="m 138.007,169.79 c 0,0.358 -0.281,0.649 -0.628,0.649 v 0 c -0.347,0 -0.628,-0.291 -0.628,-0.649 v -1.334 c 0,-0.359 0.281,-0.65 0.628,-0.65 v 0 c 0.347,0 0.628,0.291 0.628,0.65 z"
           inkscape:connector-curvature="0"
           style="fill:#ffffff" />
        <path
           id="path2125"
           d="m 141.048,169.79 c 0,0.358 -0.281,0.649 -0.627,0.649 v 0 c -0.347,0 -0.629,-0.291 -0.629,-0.649 v -1.334 c 0,-0.359 0.282,-0.65 0.629,-0.65 v 0 c 0.346,0 0.627,0.291 0.627,0.65 z"
           inkscape:connector-curvature="0"
           style="fill:#ffffff" />
        <path
           id="path2127"
           d="m 146.361,169.79 c 0,0.358 -0.281,0.649 -0.628,0.649 v 0 c -0.346,0 -0.627,-0.291 -0.627,-0.649 v -1.334 c 0,-0.359 0.281,-0.65 0.627,-0.65 v 0 c 0.347,0 0.628,0.291 0.628,0.65 z"
           inkscape:connector-curvature="0"
           style="fill:#ffffff" />
        <path
           id="path2129"
           d="m 151.982,169.79 c 0,0.358 -0.281,0.649 -0.628,0.649 v 0 c -0.346,0 -0.628,-0.291 -0.628,-0.649 v -1.334 c 0,-0.359 0.282,-0.65 0.628,-0.65 v 0 c 0.347,0 0.628,0.291 0.628,0.65 z"
           inkscape:connector-curvature="0"
           style="fill:#ffffff" />
        <path
           id="path2131"
           d="m 154.141,169.79 c 0,0.358 -0.281,0.649 -0.627,0.649 v 0 c -0.347,0 -0.628,-0.291 -0.628,-0.649 v -1.334 c 0,-0.359 0.282,-0.65 0.628,-0.65 v 0 c 0.346,0 0.627,0.291 0.627,0.65 z"
           inkscape:connector-curvature="0"
           style="fill:#ffffff" />
        <path
           id="path2133"
           d="m 156.428,169.79 c 0,0.358 -0.281,0.649 -0.627,0.649 v 0 c -0.347,0 -0.628,-0.291 -0.628,-0.649 v -1.334 c 0,-0.359 0.282,-0.65 0.628,-0.65 v 0 c 0.347,0 0.627,0.291 0.627,0.65 z"
           inkscape:connector-curvature="0"
           style="fill:#ffffff" />
        <path
           id="path2135"
           d="m 159.28,169.818 c 0,0.359 -0.282,0.649 -0.628,0.649 v 0 c -0.347,0 -0.628,-0.29 -0.628,-0.649 v -1.334 c 0,-0.36 0.281,-0.65 0.628,-0.65 v 0 c 0.346,0 0.628,0.291 0.628,0.65 z"
           inkscape:connector-curvature="0"
           style="fill:#ffffff" />
        <path
           id="path2137"
           d="m 143.592,169.818 c 0,0.359 -0.28,0.649 -0.627,0.649 v 0 c -0.346,0 -0.628,-0.29 -0.628,-0.649 v -1.334 c 0,-0.36 0.282,-0.65 0.628,-0.65 v 0 c 0.347,0 0.627,0.291 0.627,0.65 z"
           inkscape:connector-curvature="0"
           style="fill:#ffffff" />
        <path
           id="path2139"
           d="m 146.126,169.818 c 0,0.359 -0.281,0.649 -0.628,0.649 v 0 c -0.347,0 -0.628,-0.29 -0.628,-0.649 v -1.334 c 0,-0.36 0.282,-0.65 0.628,-0.65 v 0 c 0.348,0 0.628,0.291 0.628,0.65 z"
           inkscape:connector-curvature="0"
           style="fill:#ffffff" />
        <path
           id="path2141"
           d="m 149.167,169.818 c 0,0.359 -0.281,0.649 -0.628,0.649 v 0 c -0.346,0 -0.628,-0.29 -0.628,-0.649 v -1.334 c 0,-0.36 0.282,-0.65 0.628,-0.65 v 0 c 0.347,0 0.628,0.291 0.628,0.65 z"
           inkscape:connector-curvature="0"
           style="fill:#ffffff" />
        <path
           id="path2143"
           d="m 135.787,179.927 c 0,0.358 -0.281,0.649 -0.626,0.649 v 0 c -0.347,0 -0.628,-0.291 -0.628,-0.649 v -1.334 c 0,-0.359 0.281,-0.649 0.628,-0.649 v 0 c 0.346,0 0.626,0.29 0.626,0.649 z"
           inkscape:connector-curvature="0"
           style="fill:#ffffff" />
        <path
           id="path2145"
           d="m 138.568,179.927 c 0,0.358 -0.281,0.649 -0.628,0.649 v 0 c -0.348,0 -0.628,-0.291 -0.628,-0.649 v -1.334 c 0,-0.359 0.28,-0.649 0.628,-0.649 v 0 c 0.347,0 0.628,0.29 0.628,0.649 z"
           inkscape:connector-curvature="0"
           style="fill:#ffffff" />
        <path
           id="path2147"
           d="m 141.102,179.927 c 0,0.358 -0.281,0.649 -0.628,0.649 v 0 c -0.347,0 -0.628,-0.291 -0.628,-0.649 v -1.334 c 0,-0.359 0.281,-0.649 0.628,-0.649 v 0 c 0.347,0 0.628,0.29 0.628,0.649 z"
           inkscape:connector-curvature="0"
           style="fill:#ffffff" />
        <path
           id="path2149"
           d="m 144.143,179.927 c 0,0.358 -0.28,0.649 -0.628,0.649 v 0 c -0.346,0 -0.626,-0.291 -0.626,-0.649 v -1.334 c 0,-0.359 0.28,-0.649 0.626,-0.649 v 0 c 0.348,0 0.628,0.29 0.628,0.649 z"
           inkscape:connector-curvature="0"
           style="fill:#ffffff" />
        <path
           id="path2151"
           d="m 155.076,179.927 c 0,0.358 -0.281,0.649 -0.628,0.649 v 0 c -0.347,0 -0.629,-0.291 -0.629,-0.649 v -1.334 c 0,-0.359 0.282,-0.649 0.629,-0.649 v 0 c 0.347,0 0.628,0.29 0.628,0.649 z"
           inkscape:connector-curvature="0"
           style="fill:#ffffff" />
        <path
           id="path2153"
           d="m 157.235,179.927 c 0,0.358 -0.281,0.649 -0.627,0.649 v 0 c -0.347,0 -0.628,-0.291 -0.628,-0.649 v -1.334 c 0,-0.359 0.281,-0.649 0.628,-0.649 v 0 c 0.347,0 0.627,0.29 0.627,0.649 z"
           inkscape:connector-curvature="0"
           style="fill:#ffffff" />
        <path
           id="path2155"
           d="m 146.687,179.955 c 0,0.359 -0.281,0.649 -0.628,0.649 v 0 c -0.347,0 -0.628,-0.291 -0.628,-0.649 v -1.335 c 0,-0.358 0.281,-0.649 0.628,-0.649 v 0 c 0.347,0 0.628,0.291 0.628,0.649 z"
           inkscape:connector-curvature="0"
           style="fill:#ffffff" />
        <path
           id="path2157"
           d="m 149.221,179.955 c 0,0.359 -0.282,0.649 -0.628,0.649 v 0 c -0.346,0 -0.627,-0.291 -0.627,-0.649 v -1.335 c 0,-0.358 0.282,-0.649 0.627,-0.649 v 0 c 0.347,0 0.628,0.291 0.628,0.649 z"
           inkscape:connector-curvature="0"
           style="fill:#ffffff" />
        <path
           id="path2159"
           d="m 152.262,179.955 c 0,0.359 -0.281,0.649 -0.628,0.649 v 0 c -0.346,0 -0.627,-0.291 -0.627,-0.649 v -1.335 c 0,-0.358 0.281,-0.649 0.627,-0.649 v 0 c 0.348,0 0.628,0.291 0.628,0.649 z"
           inkscape:connector-curvature="0"
           style="fill:#ffffff" />
        <path
           id="path2161"
           d="m 135.787,184.762 c 0,0.36 -0.281,0.65 -0.626,0.65 v 0 c -0.347,0 -0.628,-0.291 -0.628,-0.65 v -1.334 c 0,-0.359 0.281,-0.649 0.628,-0.649 v 0 c 0.346,0 0.626,0.29 0.626,0.649 z"
           inkscape:connector-curvature="0"
           style="fill:#ffffff" />
        <path
           id="path2163"
           d="m 138.568,184.762 c 0,0.36 -0.281,0.65 -0.627,0.65 v 0 c -0.347,0 -0.628,-0.291 -0.628,-0.65 v -1.334 c 0,-0.359 0.282,-0.649 0.628,-0.649 v 0 c 0.347,0 0.627,0.29 0.627,0.649 z"
           inkscape:connector-curvature="0"
           style="fill:#ffffff" />
        <path
           id="path2165"
           d="m 141.102,184.762 c 0,0.36 -0.281,0.65 -0.628,0.65 v 0 c -0.347,0 -0.628,-0.291 -0.628,-0.65 v -1.334 c 0,-0.359 0.281,-0.649 0.628,-0.649 v 0 c 0.347,0 0.628,0.29 0.628,0.649 z"
           inkscape:connector-curvature="0"
           style="fill:#ffffff" />
        <path
           id="path2167"
           d="m 144.144,184.762 c 0,0.36 -0.281,0.65 -0.629,0.65 v 0 c -0.346,0 -0.626,-0.291 -0.626,-0.65 v -1.334 c 0,-0.359 0.28,-0.649 0.626,-0.649 v 0 c 0.348,0 0.629,0.29 0.629,0.649 z"
           inkscape:connector-curvature="0"
           style="fill:#ffffff" />
        <path
           id="path2169"
           d="m 155.076,184.762 c 0,0.36 -0.28,0.65 -0.628,0.65 v 0 c -0.347,0 -0.628,-0.291 -0.628,-0.65 v -1.334 c 0,-0.359 0.281,-0.649 0.628,-0.649 v 0 c 0.348,0 0.628,0.29 0.628,0.649 z"
           inkscape:connector-curvature="0"
           style="fill:#ffffff" />
        <path
           id="path2171"
           d="m 157.235,184.762 c 0,0.36 -0.281,0.65 -0.627,0.65 v 0 c -0.347,0 -0.628,-0.291 -0.628,-0.65 v -1.334 c 0,-0.359 0.281,-0.649 0.628,-0.649 v 0 c 0.346,0 0.627,0.29 0.627,0.649 z"
           inkscape:connector-curvature="0"
           style="fill:#ffffff" />
        <path
           id="path2173"
           d="m 146.687,184.79 c 0,0.359 -0.281,0.65 -0.628,0.65 v 0 c -0.346,0 -0.628,-0.292 -0.628,-0.65 v -1.334 c 0,-0.359 0.282,-0.649 0.628,-0.649 v 0 c 0.347,0 0.628,0.291 0.628,0.649 z"
           inkscape:connector-curvature="0"
           style="fill:#ffffff" />
        <path
           id="path2175"
           d="m 149.221,184.79 c 0,0.359 -0.282,0.65 -0.628,0.65 v 0 c -0.346,0 -0.628,-0.292 -0.628,-0.65 v -1.334 c 0,-0.359 0.282,-0.649 0.628,-0.649 v 0 c 0.346,0 0.628,0.291 0.628,0.649 z"
           inkscape:connector-curvature="0"
           style="fill:#ffffff" />
        <path
           id="path2177"
           d="m 152.263,184.79 c 0,0.359 -0.281,0.65 -0.629,0.65 v 0 c -0.346,0 -0.627,-0.292 -0.627,-0.65 v -1.334 c 0,-0.359 0.281,-0.649 0.627,-0.649 v 0 c 0.348,0 0.629,0.291 0.629,0.649 z"
           inkscape:connector-curvature="0"
           style="fill:#ffffff" />
        <path
           id="path2179"
           d="m 135.963,196.328 c 0,0.36 -0.282,0.651 -0.628,0.651 v 0 c -0.347,0 -0.627,-0.291 -0.627,-0.651 v -1.333 c 0,-0.358 0.281,-0.65 0.627,-0.65 v 0 c 0.347,0 0.628,0.292 0.628,0.65 z"
           inkscape:connector-curvature="0"
           style="fill:#ffffff" />
        <path
           id="path2181"
           d="m 138.743,196.328 c 0,0.36 -0.28,0.651 -0.627,0.651 v 0 c -0.347,0 -0.629,-0.291 -0.629,-0.651 v -1.333 c 0,-0.358 0.282,-0.65 0.629,-0.65 v 0 c 0.347,0 0.627,0.292 0.627,0.65 z"
           inkscape:connector-curvature="0"
           style="fill:#ffffff" />
        <path
           id="path2183"
           d="m 141.277,196.328 c 0,0.36 -0.28,0.651 -0.628,0.651 v 0 c -0.348,0 -0.628,-0.291 -0.628,-0.651 v -1.333 c 0,-0.358 0.281,-0.65 0.628,-0.65 v 0 c 0.348,0 0.628,0.292 0.628,0.65 z"
           inkscape:connector-curvature="0"
           style="fill:#ffffff" />
        <path
           id="path2185"
           d="m 144.318,196.328 c 0,0.36 -0.281,0.651 -0.628,0.651 v 0 c -0.347,0 -0.628,-0.291 -0.628,-0.651 v -1.333 c 0,-0.358 0.281,-0.65 0.628,-0.65 v 0 c 0.347,0 0.628,0.292 0.628,0.65 z"
           inkscape:connector-curvature="0"
           style="fill:#ffffff" />
        <path
           id="path2187"
           d="m 155.251,196.328 c 0,0.36 -0.281,0.651 -0.628,0.651 v 0 c -0.347,0 -0.628,-0.291 -0.628,-0.651 v -1.333 c 0,-0.358 0.281,-0.65 0.628,-0.65 v 0 c 0.347,0 0.628,0.292 0.628,0.65 z"
           inkscape:connector-curvature="0"
           style="fill:#ffffff" />
        <path
           id="path2189"
           d="m 157.411,196.328 c 0,0.36 -0.28,0.651 -0.627,0.651 v 0 c -0.347,0 -0.628,-0.291 -0.628,-0.651 v -1.333 c 0,-0.358 0.281,-0.65 0.628,-0.65 v 0 c 0.347,0 0.627,0.292 0.627,0.65 z"
           inkscape:connector-curvature="0"
           style="fill:#ffffff" />
        <path
           id="path2191"
           d="m 146.862,196.356 c 0,0.359 -0.281,0.649 -0.628,0.649 v 0 c -0.346,0 -0.627,-0.291 -0.627,-0.649 v -1.333 c 0,-0.359 0.281,-0.651 0.627,-0.651 v 0 c 0.347,0 0.628,0.292 0.628,0.651 z"
           inkscape:connector-curvature="0"
           style="fill:#ffffff" />
        <path
           id="path2193"
           d="m 149.396,196.356 c 0,0.359 -0.281,0.649 -0.628,0.649 v 0 c -0.347,0 -0.627,-0.291 -0.627,-0.649 v -1.333 c 0,-0.359 0.28,-0.651 0.627,-0.651 v 0 c 0.347,0 0.628,0.292 0.628,0.651 z"
           inkscape:connector-curvature="0"
           style="fill:#ffffff" />
        <path
           id="path2195"
           d="m 152.438,196.356 c 0,0.359 -0.282,0.649 -0.628,0.649 v 0 c -0.347,0 -0.627,-0.291 -0.627,-0.649 v -1.333 c 0,-0.359 0.281,-0.651 0.627,-0.651 v 0 c 0.347,0 0.628,0.292 0.628,0.651 z"
           inkscape:connector-curvature="0"
           style="fill:#ffffff" />
        <path
           id="path2197"
           d="m 135.963,200.687 c 0,0.358 -0.282,0.649 -0.628,0.649 v 0 c -0.347,0 -0.627,-0.291 -0.627,-0.649 v -1.335 c 0,-0.358 0.281,-0.649 0.627,-0.649 v 0 c 0.347,0 0.628,0.292 0.628,0.649 z"
           inkscape:connector-curvature="0"
           style="fill:#ffffff" />
        <path
           id="path2199"
           d="m 138.743,200.687 c 0,0.358 -0.28,0.649 -0.627,0.649 v 0 c -0.347,0 -0.629,-0.291 -0.629,-0.649 v -1.335 c 0,-0.358 0.282,-0.649 0.629,-0.649 v 0 c 0.347,0 0.627,0.292 0.627,0.649 z"
           inkscape:connector-curvature="0"
           style="fill:#ffffff" />
        <path
           id="path2201"
           d="m 141.277,200.687 c 0,0.358 -0.28,0.649 -0.628,0.649 v 0 c -0.348,0 -0.628,-0.291 -0.628,-0.649 v -1.335 c 0,-0.358 0.281,-0.649 0.628,-0.649 v 0 c 0.348,0 0.628,0.292 0.628,0.649 z"
           inkscape:connector-curvature="0"
           style="fill:#ffffff" />
        <path
           id="path2203"
           d="m 144.318,200.687 c 0,0.358 -0.281,0.649 -0.628,0.649 v 0 c -0.347,0 -0.628,-0.291 -0.628,-0.649 v -1.335 c 0,-0.358 0.281,-0.649 0.628,-0.649 v 0 c 0.347,0 0.628,0.292 0.628,0.649 z"
           inkscape:connector-curvature="0"
           style="fill:#ffffff" />
        <path
           id="path2205"
           d="m 155.251,200.687 c 0,0.358 -0.281,0.649 -0.628,0.649 v 0 c -0.347,0 -0.628,-0.291 -0.628,-0.649 v -1.335 c 0,-0.358 0.281,-0.649 0.628,-0.649 v 0 c 0.347,0 0.628,0.292 0.628,0.649 z"
           inkscape:connector-curvature="0"
           style="fill:#ffffff" />
        <path
           id="path2207"
           d="m 157.411,200.687 c 0,0.358 -0.28,0.649 -0.627,0.649 v 0 c -0.347,0 -0.628,-0.291 -0.628,-0.649 v -1.335 c 0,-0.358 0.281,-0.649 0.628,-0.649 v 0 c 0.347,0 0.627,0.292 0.627,0.649 z"
           inkscape:connector-curvature="0"
           style="fill:#ffffff" />
        <path
           id="path2209"
           d="m 146.862,200.715 c 0,0.358 -0.281,0.65 -0.628,0.65 v 0 c -0.346,0 -0.627,-0.292 -0.627,-0.65 v -1.334 c 0,-0.36 0.281,-0.65 0.627,-0.65 v 0 c 0.347,0 0.628,0.291 0.628,0.65 z"
           inkscape:connector-curvature="0"
           style="fill:#ffffff" />
        <path
           id="path2211"
           d="m 149.396,200.715 c 0,0.358 -0.281,0.65 -0.628,0.65 v 0 c -0.347,0 -0.627,-0.292 -0.627,-0.65 v -1.334 c 0,-0.36 0.28,-0.65 0.627,-0.65 v 0 c 0.347,0 0.628,0.291 0.628,0.65 z"
           inkscape:connector-curvature="0"
           style="fill:#ffffff" />
        <path
           id="path2213"
           d="m 152.438,200.715 c 0,0.358 -0.282,0.65 -0.628,0.65 v 0 c -0.347,0 -0.627,-0.292 -0.627,-0.65 v -1.334 c 0,-0.36 0.281,-0.65 0.627,-0.65 v 0 c 0.347,0 0.628,0.291 0.628,0.65 z"
           inkscape:connector-curvature="0"
           style="fill:#ffffff" />
        <path
           id="path2215"
           d="m 182.525,191.45 v 1.1 c 0,0.358 0.28,0.648 0.627,0.648 0.347,0 0.628,-0.291 0.628,-0.648 v -1.1 z"
           inkscape:connector-curvature="0"
           style="fill:#35b9ab" />
        <path
           id="path2217"
           d="m 166.72,175.097 c 0,0.358 -0.282,0.65 -0.628,0.65 v 0 c -0.347,0 -0.628,-0.292 -0.628,-0.65 v -1.334 c 0,-0.361 0.281,-0.65 0.628,-0.65 v 0 c 0.346,0 0.628,0.29 0.628,0.65 z"
           inkscape:connector-curvature="0"
           style="fill:#ffffff" />
        <path
           id="path2219"
           d="m 169.264,175.124 c 0,0.359 -0.281,0.65 -0.628,0.65 v 0 c -0.347,0 -0.627,-0.291 -0.627,-0.65 v -1.334 c 0,-0.359 0.281,-0.65 0.627,-0.65 v 0 c 0.347,0 0.628,0.291 0.628,0.65 z"
           inkscape:connector-curvature="0"
           style="fill:#ffffff" />
        <path
           id="path2221"
           d="m 171.797,175.124 c 0,0.359 -0.281,0.65 -0.629,0.65 v 0 c -0.345,0 -0.627,-0.291 -0.627,-0.65 v -1.334 c 0,-0.359 0.282,-0.65 0.627,-0.65 v 0 c 0.348,0 0.629,0.291 0.629,0.65 z"
           inkscape:connector-curvature="0"
           style="fill:#ffffff" />
        <path
           id="path2223"
           d="m 162.2,182.414 c 0,0.359 -0.281,0.65 -0.628,0.65 v 0 c -0.347,0 -0.627,-0.291 -0.627,-0.65 v -1.334 c 0,-0.358 0.281,-0.649 0.627,-0.649 v 0 c 0.347,0 0.628,0.291 0.628,0.649 z"
           inkscape:connector-curvature="0"
           style="fill:#ffffff" />
        <path
           id="path2225"
           d="m 164.744,182.441 c 0,0.358 -0.281,0.65 -0.628,0.65 v 0 c -0.346,0 -0.627,-0.292 -0.627,-0.65 v -1.334 c 0,-0.36 0.281,-0.649 0.627,-0.649 v 0 c 0.347,0 0.628,0.29 0.628,0.649 z"
           inkscape:connector-curvature="0"
           style="fill:#ffffff" />
        <path
           id="path2227"
           d="m 167.278,182.441 c 0,0.358 -0.282,0.65 -0.629,0.65 v 0 c -0.346,0 -0.627,-0.292 -0.627,-0.65 v -1.334 c 0,-0.36 0.281,-0.649 0.627,-0.649 v 0 c 0.347,0 0.629,0.29 0.629,0.649 z"
           inkscape:connector-curvature="0"
           style="fill:#ffffff" />
        <path
           id="path2229"
           d="m 170.519,182.428 c 0,0.358 -0.28,0.649 -0.628,0.649 v 0 c -0.346,0 -0.627,-0.291 -0.627,-0.649 v -1.336 c 0,-0.358 0.281,-0.649 0.627,-0.649 v 0 c 0.348,0 0.628,0.292 0.628,0.649 z"
           inkscape:connector-curvature="0"
           style="fill:#ffffff" />
        <path
           id="path2231"
           d="m 173.063,182.456 c 0,0.357 -0.281,0.649 -0.628,0.649 v 0 c -0.347,0 -0.627,-0.292 -0.627,-0.649 v -1.335 c 0,-0.359 0.281,-0.65 0.627,-0.65 v 0 c 0.348,0 0.628,0.291 0.628,0.65 z"
           inkscape:connector-curvature="0"
           style="fill:#ffffff" />
        <path
           id="path2233"
           d="m 175.597,182.456 c 0,0.357 -0.281,0.649 -0.628,0.649 v 0 c -0.347,0 -0.628,-0.292 -0.628,-0.649 v -1.335 c 0,-0.359 0.281,-0.65 0.628,-0.65 v 0 c 0.347,0 0.628,0.291 0.628,0.65 z"
           inkscape:connector-curvature="0"
           style="fill:#ffffff" />
        <path
           id="path2235"
           d="m 178.735,191.45 v 1.1 c 0,0.358 0.28,0.648 0.627,0.648 0.347,0 0.628,-0.291 0.628,-0.648 v -1.1 z"
           inkscape:connector-curvature="0"
           style="fill:#35b9ab" />
        <path
           id="path2237"
           d="m 186.329,191.45 v 1.1 c 0,0.358 0.28,0.648 0.627,0.648 0.347,0 0.628,-0.291 0.628,-0.648 v -1.1 z"
           inkscape:connector-curvature="0"
           style="fill:#35b9ab" />
        <path
           id="path2239"
           d="m 190.668,191.456 v 1.1 c 0,0.358 0.28,0.648 0.627,0.648 0.347,0 0.628,-0.291 0.628,-0.648 v -1.1 z"
           inkscape:connector-curvature="0"
           style="fill:#35b9ab" />
        <path
           id="path2241"
           d="m 213.981,191.456 v 1.1 c 0,0.358 0.28,0.648 0.627,0.648 0.347,0 0.628,-0.291 0.628,-0.648 v -1.1 z"
           inkscape:connector-curvature="0"
           style="fill:#35b9ab" />
        <path
           id="path2243"
           d="m 210.304,191.417 v 1.1 c 0,0.358 0.28,0.648 0.627,0.648 0.347,0 0.628,-0.291 0.628,-0.648 v -1.1 z"
           inkscape:connector-curvature="0"
           style="fill:#35b9ab" />
        <path
           id="path2245"
           d="m 206.243,191.456 v 1.1 c 0,0.358 0.28,0.648 0.627,0.648 0.347,0 0.628,-0.291 0.628,-0.648 v -1.1 z"
           inkscape:connector-curvature="0"
           style="fill:#35b9ab" />
        <path
           id="path2247"
           d="m 202.073,191.456 v 1.1 c 0,0.358 0.28,0.648 0.627,0.648 0.347,0 0.628,-0.291 0.628,-0.648 v -1.1 z"
           inkscape:connector-curvature="0"
           style="fill:#35b9ab" />
        <path
           id="path2249"
           d="m 198.659,191.456 v 1.1 c 0,0.358 0.28,0.648 0.627,0.648 0.347,0 0.628,-0.291 0.628,-0.648 v -1.1 z"
           inkscape:connector-curvature="0"
           style="fill:#35b9ab" />
        <path
           id="path2251"
           d="m 194.448,191.456 v 1.1 c 0,0.358 0.28,0.648 0.627,0.648 0.347,0 0.628,-0.291 0.628,-0.648 v -1.1 z"
           inkscape:connector-curvature="0"
           style="fill:#35b9ab" />
      </g>
      <g
         id="Layer_3">
        <g
           id="openSUSE_1_">
          <path
             id="path2254"
             d="m 506.542,338.223 c -11.701,0 -18.139,9.894 -18.139,16.732 v 8.781 c 0,10.072 8.23,16.313 15.859,16.313 h 26.791 c 3.375,0 4.082,2.208 4.082,4.072 v 5.666 c 0,0.604 -0.121,6.045 -4.082,6.045 h -36.539 c -3.631,0 -6.254,2.526 -6.254,5.981 v 1.565 c 0,3.446 2.623,5.956 6.254,5.956 h 38.523 c 10.072,0 16.568,-7.007 16.568,-17.859 V 382 c 0,-10.191 -7.32,-14.748 -14.592,-14.748 H 508.65 c -3.967,0 -5.766,-2.978 -5.766,-5.08 v -5.23 c 0,-3.295 2.203,-5.204 6.053,-5.204 h 29.18 c 3.576,0 6.27,-2.569 6.27,-5.969 v -1.564 c 0,-3.41 -2.736,-5.984 -6.393,-5.984 z"
             inkscape:connector-curvature="0"
             style="fill:#72ba44" />
          <path
             id="path2256"
             d="m 616.089,338.223 c -3.463,0 -6.246,2.811 -6.246,6.27 v 44.862 c 0,3.594 -2.936,6.479 -6.482,6.479 h -20.365 c -3.561,0 -6.48,-2.887 -6.48,-6.479 v -44.862 c 0,-3.459 -2.809,-6.27 -6.266,-6.27 h -1.971 c -3.508,0 -6.268,2.767 -6.268,6.27 v 46.562 c 0,10.839 8.523,18.701 20.275,18.701 h 21.777 c 11.736,0 20.258,-7.86 20.258,-18.701 v -46.562 c 0,-3.503 -2.746,-6.27 -6.252,-6.27 z"
             inkscape:connector-curvature="0"
             style="fill:#72ba44" />
          <path
             id="path2258"
             d="m 655.076,338.223 c -11.695,0 -18.148,9.894 -18.148,16.732 v 8.781 c 0,10.072 8.246,16.313 15.879,16.313 h 26.781 c 3.381,0 4.092,2.208 4.092,4.072 v 5.666 c 0,0.604 -0.123,6.045 -4.092,6.045 h -36.555 c -3.611,0 -6.254,2.526 -6.254,5.981 v 1.565 c 0,3.446 2.641,5.956 6.254,5.956 h 38.539 c 10.072,0 16.6,-7.007 16.6,-17.859 V 382 c 0,-10.191 -7.344,-14.748 -14.615,-14.748 h -26.359 c -3.98,0 -5.77,-2.978 -5.77,-5.08 v -5.23 c 0,-3.295 2.201,-5.204 6.049,-5.204 h 29.197 c 3.568,0 6.252,-2.569 6.252,-5.969 v -1.564 c 0,-3.41 -2.734,-5.984 -6.406,-5.984 z"
             inkscape:connector-curvature="0"
             style="fill:#72ba44" />
          <path
             id="path2260"
             d="m 716.664,338.223 c -3.469,0 -6.096,2.574 -6.096,5.984 v 59.174 c 0,3.396 2.564,5.954 5.961,5.954 h 47.152 c 3.633,0 6.258,-2.51 6.258,-5.954 v -1.565 c 0,-3.456 -2.625,-5.983 -6.258,-5.983 h -38.619 v -15.064 h 28.303 c 3.621,0 6.252,-2.542 6.252,-5.984 v -1.562 c 0,-3.459 -2.631,-5.972 -6.252,-5.972 h -28.303 v -15.514 h 36.658 c 3.621,0 6.256,-2.494 6.256,-5.971 v -1.563 c 0,-3.46 -2.635,-5.983 -6.256,-5.983 h -45.059 v 0.005 h 0.003 z"
             inkscape:connector-curvature="0"
             style="fill:#72ba44" />
          <path
             id="path2262"
             d="m 315.829,366.368 c -5.909,0 -10.718,4.598 -10.718,10.268 v 22.311 c 0,5.759 4.653,10.449 10.36,10.449 h 14.431 c 5.707,0 10.36,-4.69 10.36,-10.449 v -22.311 c 0,-5.666 -4.812,-10.268 -10.72,-10.268 z m -3.121,31.694 v -20.375 c 0,-2.388 1.963,-4.34 4.36,-4.34 h 11.245 c 2.346,0 4.346,1.996 4.346,4.34 v 20.375 c 0,2.401 -1.948,4.357 -4.346,4.357 h -11.329 c -2.404,0 -4.276,-1.913 -4.276,-4.357"
             inkscape:connector-curvature="0"
             style="fill:#72ba44" />
          <path
             id="path2264"
             d="m 372.933,366.11 c -4.161,0 -7.297,1.486 -9.815,2.704 -1.536,0.736 -2.862,1.372 -3.894,1.372 -0.466,0 -0.866,-0.211 -1.077,-0.558 l -0.96,-1.834 c -0.239,-0.482 -1.201,-1.429 -2.391,-1.429 h -1.428 c -1.371,0 -2.468,1.231 -2.468,2.735 v 56.589 c 0,1.775 1.4,3.173 3.173,3.173 h 1.233 c 1.759,0 3.188,-1.415 3.188,-3.173 v -18.776 c 0,-0.558 0.359,-1.158 0.729,-1.158 1.031,0 2.357,0.604 3.894,1.309 2.519,1.158 5.655,2.584 9.815,2.584 h 1.333 c 7.367,0 11.951,-4.211 11.951,-10.975 v -21.602 c 0,-6.661 -4.682,-10.961 -11.951,-10.961 z m -14.437,31.515 v -19.486 c 0,-2.692 2.104,-4.794 4.793,-4.794 h 10.539 c 2.694,0 4.794,2.104 4.794,4.794 v 19.486 c 0,2.646 -2.155,4.792 -4.794,4.792 h -10.539 c -2.639,0 -4.793,-2.146 -4.793,-4.792 z"
             inkscape:connector-curvature="0"
             style="fill:#72ba44" />
          <path
             id="path2266"
             d="m 407.565,366.366 c -5.909,0 -10.705,4.6 -10.705,10.268 v 22.145 c 0,5.745 4.661,10.615 10.162,10.615 h 14.891 c 1.842,0 3.172,-1.274 3.172,-3.01 v -0.975 c 0,-1.744 -1.33,-2.994 -3.172,-2.994 H 409.68 c -3.429,0 -5.235,-1.683 -5.235,-4.889 v -6.479 h 22.066 c 3.551,0 5.648,-2.165 5.648,-5.831 v -8.586 c 0,-5.669 -4.805,-10.271 -10.689,-10.271 h -13.904 z m -3.119,11.247 c 0,-2.392 1.88,-4.27 4.274,-4.27 h 11.593 c 2.389,0 4.252,1.878 4.252,4.27 v 6.914 h -20.122 c 0.003,-0.903 0.003,-6.914 0.003,-6.914 z"
             inkscape:connector-curvature="0"
             style="fill:#72ba44" />
          <path
             id="path2268"
             d="m 462.816,366.11 c -4.148,0 -7.277,1.486 -9.803,2.69 -1.572,0.738 -2.916,1.386 -4.014,1.386 -0.479,0 -0.678,-0.062 -1.051,-0.71 l -0.873,-1.594 c -0.5,-1.008 -1.352,-1.515 -2.502,-1.515 h -1.227 c -1.482,0 -2.562,1.154 -2.562,2.733 v 37.118 c 0,1.758 1.391,3.173 3.18,3.173 h 1.227 c 1.758,0 3.193,-1.431 3.193,-3.173 v -28.082 c 0,-2.63 2.148,-4.794 4.781,-4.794 h 10.543 c 2.641,0 4.789,2.164 4.789,4.794 v 28.082 c 0,1.758 1.398,3.173 3.17,3.173 h 1.24 c 1.76,0 3.189,-1.431 3.189,-3.173 V 377.07 c 0,-6.661 -4.684,-10.961 -11.957,-10.961 z"
             inkscape:connector-curvature="0"
             style="fill:#72ba44" />
          <path
             id="path2270"
             d="m 780.447,395.002 c 3.211,0 5.771,2.612 5.771,5.88 0,3.314 -2.562,5.897 -5.799,5.897 -3.211,0 -5.818,-2.583 -5.818,-5.897 0,-3.266 2.607,-5.88 5.818,-5.88 z m -0.028,0.913 c -2.584,0 -4.697,2.223 -4.697,4.963 0,2.796 2.113,4.987 4.725,4.987 2.611,0.028 4.701,-2.191 4.701,-4.962 0,-2.767 -2.09,-4.988 -4.701,-4.988 z m -1.095,8.384 h -1.045 v -6.552 c 0.551,-0.08 1.072,-0.158 1.857,-0.158 0.99,0 1.643,0.205 2.031,0.495 0.395,0.284 0.605,0.728 0.605,1.358 0,0.86 -0.576,1.379 -1.277,1.592 v 0.055 c 0.574,0.104 0.963,0.625 1.098,1.593 0.152,1.021 0.309,1.412 0.416,1.619 h -1.098 c -0.16,-0.207 -0.314,-0.81 -0.445,-1.671 -0.156,-0.834 -0.572,-1.148 -1.406,-1.148 h -0.732 v 2.817 z m 0,-3.632 h 0.758 c 0.863,0 1.594,-0.312 1.594,-1.122 0,-0.575 -0.418,-1.15 -1.594,-1.15 -0.342,0 -0.574,0.024 -0.758,0.057 z"
             inkscape:connector-curvature="0"
             style="fill:#72ba44" />
          <rect
             id="rect2272"
             height="425.245"
             width="584"
             y="52.623001"
             x="249.065"
             style="fill:none" />
        </g>
        <g
           id="Conference_1_">
          <text
             id="text2275"
             font-size="65"
             transform="translate(298.397,478.3408)"
             style="font-size:65px;font-family:OpenSans;fill:#72ba44">Conference</text>
        </g>
        <g
           id="Prague_1_">
          <text
             id="text2278"
             font-size="28"
             transform="translate(305.1113,520.1133)"
             style="font-size:28px;font-family:OpenSans;fill:#72ba44">Nuremberg, Germany</text>
        </g>
      </g>
    </g>
  </g>
</svg>
